<svg width="1066" height="248" viewBox="0 0 1066 248" fill="none" xmlns="http://www.w3.org/2000/svg">
<path d="M547.299 231.91V233.127C675.431 233.126 791.745 220.598 876.103 200.367C918.286 190.247 952.477 178.21 976.216 164.79C988.086 158.076 997.351 151.019 1003.7 143.617C1010.04 136.226 1013.47 128.43 1013.47 120.379C1013.47 112.329 1010.04 104.531 1003.7 97.1393C992.589 84.2002 972.557 72.2611 945.231 61.4842C863.269 29.1995 715.48 7.63934 547.299 7.63123C419.168 7.63326 302.854 20.1608 218.495 40.3926C176.312 50.5124 142.121 62.5491 118.382 75.9692C106.512 82.6813 97.2475 89.7396 90.9021 97.1393C84.5622 104.531 81.1291 112.329 81.1299 120.379C81.1291 128.43 84.5627 136.226 90.9029 143.617C102.009 156.558 122.042 168.498 149.368 179.275C231.33 211.559 379.119 233.12 547.299 233.127V231.91V230.693C419.318 230.696 303.133 218.172 219.022 197.995C176.968 187.91 142.931 175.903 119.501 162.652C107.786 156.029 98.7302 149.096 92.651 141.999C86.5671 134.893 83.4733 127.685 83.4719 120.379C83.4733 113.073 86.5671 105.866 92.651 98.7582C103.286 86.33 123.053 74.4457 150.198 63.7599C231.652 31.6519 379.334 10.0572 547.299 10.0653C675.281 10.0633 791.466 22.5889 875.576 42.7632C917.63 52.8492 951.668 64.8549 975.098 78.107C986.812 84.728 995.868 91.6626 1001.95 98.7582C1008.03 105.866 1011.12 113.073 1011.13 120.379C1011.12 127.685 1008.03 134.893 1001.95 141.999C991.313 154.428 971.546 166.313 944.399 176.999C862.947 209.107 715.265 230.701 547.299 230.693V231.91Z" fill="#605B4F"/>
<path d="M599.012 225.059V226.276C727.143 226.274 843.457 213.746 927.816 193.514C970 183.394 1004.19 171.358 1027.93 157.938C1039.8 151.226 1049.06 144.166 1055.41 136.767C1061.75 129.376 1065.18 121.578 1065.18 113.529C1065.18 105.479 1061.75 97.6813 1055.41 90.2895C1044.3 77.3479 1024.27 65.4088 996.943 54.6319C914.981 22.3495 767.192 0.789261 599.012 0.781143C470.88 0.783173 354.566 13.3108 270.208 33.5423C228.024 43.6626 193.834 55.6993 170.094 69.1169C158.224 75.8315 148.96 82.8896 142.615 90.2895C136.275 97.6813 132.842 105.479 132.842 113.529C132.842 121.578 136.275 129.376 142.615 136.767C153.722 149.708 173.754 161.647 201.08 172.425C283.042 204.707 430.831 226.267 599.012 226.276V225.059V223.842C471.032 223.843 354.847 211.32 270.735 191.143C228.681 181.06 194.643 169.051 171.213 155.8C159.498 149.179 150.443 142.246 144.363 135.149C138.28 128.043 135.186 120.836 135.184 113.529C135.186 106.221 138.28 99.0156 144.363 91.9082C154.999 79.4778 174.765 67.5956 201.91 56.9076C283.364 24.8018 431.046 3.20715 599.012 3.21527C726.993 3.21527 843.178 15.7368 927.289 35.9134C969.342 45.9969 1003.38 58.005 1026.81 71.2547C1038.52 77.8779 1047.58 84.8111 1053.66 91.9082C1059.74 99.0156 1062.84 106.221 1062.84 113.529C1062.84 120.836 1059.74 128.043 1053.66 135.149C1043.02 147.578 1023.26 159.461 996.114 170.149C914.659 202.255 766.977 223.85 599.012 223.842V225.059Z" fill="#605B4F"/>
<path d="M553.93 225.059V226.276C682.061 226.274 798.375 213.746 882.736 193.514C924.918 183.394 959.108 171.358 982.848 157.938C994.719 151.226 1003.98 144.166 1010.33 136.767C1016.67 129.376 1020.1 121.578 1020.1 113.529C1020.1 105.479 1016.67 97.6813 1010.33 90.2895C999.221 77.3479 979.189 65.4088 951.861 54.6319C869.901 22.3495 722.11 0.789261 553.93 0.781143C425.798 0.783173 309.484 13.3108 225.125 33.5423C182.942 43.6626 148.751 55.6993 125.012 69.1169C113.142 75.8315 103.877 82.8896 97.5329 90.2895C91.1928 97.6813 87.7584 105.479 87.7598 113.529C87.759 121.578 91.1928 129.376 97.5329 136.767C108.639 149.708 128.672 161.647 155.998 172.425C237.96 204.707 385.747 226.267 553.93 226.276V225.059V223.842C425.948 223.843 309.763 211.32 225.651 191.143C183.598 181.06 149.561 169.051 126.131 155.802C114.416 149.179 105.36 142.246 99.2811 135.149C93.1972 128.043 90.1034 120.836 90.1018 113.529C90.1034 106.221 93.1972 99.0156 99.2811 91.9082C109.916 79.4778 129.683 67.5956 156.828 56.9076C238.282 24.8018 385.962 3.20715 553.93 3.21527C681.911 3.21527 798.096 15.7368 882.209 35.9134C924.26 45.9969 958.298 58.005 981.728 71.2547C993.444 77.8779 1002.5 84.8111 1008.58 91.9082C1014.66 99.0156 1017.76 106.221 1017.76 113.529C1017.76 120.836 1014.66 128.043 1008.58 135.149C997.943 147.578 978.176 159.461 951.032 170.149C869.577 202.255 721.895 223.85 553.93 223.842V225.059Z" fill="#605B4F"/>
<path d="M512.827 241.808V243.025C640.958 243.023 757.272 230.495 841.631 210.263C883.813 200.143 918.005 188.109 941.744 174.689C953.614 167.974 962.879 160.916 969.224 153.516C975.563 146.125 978.998 138.327 978.996 130.278C978.998 122.227 975.563 114.43 969.224 107.038C958.117 94.0968 938.084 82.1577 910.758 71.3808C828.797 39.0963 681.008 17.5382 512.827 17.5301C384.694 17.5321 268.38 30.0577 184.02 50.2915C141.837 60.4107 107.647 72.4458 83.9069 85.8659C72.0374 92.5796 62.7729 99.6387 56.4275 107.038C50.0875 114.43 46.6538 122.227 46.6553 130.278C46.6538 138.327 50.0883 146.125 56.4275 153.516C67.5347 166.457 87.5664 178.396 114.893 189.174C196.855 221.459 344.645 243.016 512.827 243.025V241.808V240.59C384.846 240.592 268.661 228.069 184.547 207.892C142.495 197.809 108.456 185.8 85.0262 172.55C73.3113 165.928 64.2557 158.995 58.1764 151.898C52.0926 144.792 48.9988 137.585 48.9973 130.278C48.9988 122.97 52.0926 115.763 58.1764 108.657C68.8117 96.2267 88.5781 84.3423 115.724 73.6565C197.178 41.5512 344.859 19.9561 512.827 19.9642C640.806 19.9622 756.991 32.4857 841.104 52.6623C883.157 62.7458 917.195 74.7523 940.625 88.0036C952.34 94.6263 961.395 101.56 967.475 108.657C973.558 115.763 976.652 122.97 976.654 130.278C976.652 137.585 973.558 144.792 967.475 151.898C956.84 164.327 937.073 176.21 909.927 186.898C828.475 219.004 680.793 240.599 512.827 240.59V241.808Z" fill="#605B4F"/>
<path d="M466.169 246.564V247.781C594.303 247.779 710.616 235.252 794.975 215.02C837.157 204.9 871.347 192.863 895.088 179.445C906.958 172.731 916.223 165.672 922.568 158.273C928.907 150.881 932.34 143.083 932.34 135.033C932.34 126.982 928.907 119.187 922.568 111.795C911.461 98.8534 891.428 86.914 864.101 76.1372C782.141 43.8527 634.352 22.2948 466.169 22.2866C338.038 22.2866 221.724 34.8144 137.365 55.0456C95.1816 65.1656 60.9916 77.2021 37.2516 90.6224C25.3814 97.3367 16.1168 104.393 9.77219 111.795C3.43305 119.187 -0.00156083 126.982 5.32109e-07 135.033C-0.00156083 143.083 3.43305 150.881 9.77219 158.273C20.8788 171.214 40.9111 183.151 68.2381 193.93C150.199 226.213 297.989 247.773 466.169 247.781V246.564V245.347C338.188 245.347 222.003 232.823 137.891 212.649C95.8387 202.566 61.8005 190.557 38.3709 177.305C26.6552 170.684 17.6005 163.751 11.5211 156.654C5.43668 149.547 2.34361 142.339 2.34205 135.033C2.34361 127.727 5.43668 120.519 11.5211 113.414C22.1564 100.984 41.9228 89.0986 69.0683 78.4129C150.522 46.3075 298.203 24.7126 466.169 24.7207C594.15 24.7187 710.335 37.2421 794.448 57.417C836.502 67.5022 870.539 79.5086 893.97 92.7602C905.684 99.381 914.74 106.317 920.819 113.414C926.903 120.519 929.996 127.727 929.998 135.033C929.996 142.339 926.903 149.547 920.819 156.654C910.182 169.084 890.417 180.967 863.271 191.654C781.817 223.76 634.137 245.355 466.169 245.347V246.564Z" fill="#605B4F"/>
</svg>
