<svg width="319" height="338" viewBox="0 0 319 338" fill="none" xmlns="http://www.w3.org/2000/svg">
<path d="M5.82278 35.6666C1.98948 38.7437 0.782326 43.6057 3.12739 46.5268L157.795 239.203L142.785 271.884C139.395 279.264 132.347 284.295 124.265 285.103L58.9805 291.627C47.6414 292.722 39.3358 302.802 40.4292 314.141C41.5236 325.479 51.6038 333.785 62.9432 332.69L125.947 326.611C133.714 325.863 140.058 320.894 142.931 314.194L142.991 314.081L170.255 254.725L211.144 305.662L211.23 305.756C215.647 311.556 223.01 314.832 230.726 313.667L293.314 304.23C304.579 302.533 312.335 292.023 310.637 280.76C308.938 269.496 298.429 261.74 287.165 263.438L222.255 272.997C214.22 274.18 206.159 271.016 201.075 264.682L178.563 236.638L281.69 12.1136C283.254 8.7096 280.9 4.28751 276.433 2.2358C271.965 0.183674 267.078 1.27968 265.514 4.68362L166.103 221.116L17.0088 35.3836C14.6641 32.4624 9.65676 32.5888 5.82278 35.6666Z" fill="#81898F"/>
</svg>
