<svg width="306" height="38" viewBox="0 0 306 38" fill="none" xmlns="http://www.w3.org/2000/svg">
<path d="M306 16.4092C296.505 14.2967 287.708 14.7305 280.035 14.7305C264.929 14.6705 256.658 14.9811 244.67 15.5733C238.709 15.6748 232.467 15.3371 231.345 18.2584C236.629 26.2381 265.981 26.091 276.32 29.8641C277.012 30.0803 278.033 32.2145 275.723 32.4393C199.261 39.2527 115.983 37.2196 41.1108 34.2156C41.7465 28.5753 137.015 30.6934 161.9 18.1592C161.89 17.8166 165.237 14.7728 158.512 13.42C118.136 6.62141 61.2352 9.77174 16.6272 9.24502C18.9996 7.17708 44.8396 4.45704 52.1302 2.6276C56.8693 1.65162 65.6496 2.32595 67.458 0C60.8002 0 49.639 1.61601 47.2888 1.27385C27.1462 4.0102 19.2268 5.66141 3.87215 8.86843C1.48412 9.47191 -0.0911106 9.99652 0.00408924 11.6505C1.29498 14.9249 4.49127 13.7531 8.00405 13.4948C45.8019 11.5908 90.5328 9.17679 130.114 11.6505C139.78 12.4287 151.353 14.1373 160.841 16.0941C161.348 16.8918 154.586 18.2886 153.99 18.3839C133.721 21.5314 114.272 25.1924 93.8767 26.933C77.8092 28.2682 61.7954 28.3245 45.7729 30.2175C42.3225 30.6243 40.64 29.7246 38.9917 34.2156C40.4751 36.4581 43.7069 34.5698 48.5277 35.8012C127.67 38.3384 188.541 39.5652 271.67 34.4874C275.509 33.8754 277.327 34.8208 278.663 29.8641C278.472 27.3106 271.569 26.933 254.506 24.6339C244.889 22.232 242.241 21.1323 233.264 19.0746C232.803 18.9788 232.862 18.1894 233.318 18.1592C246.164 16.8333 262.836 15.3371 274.358 15.3371C284.331 15.3421 295.436 16.3506 306 16.4092Z" fill="#C18C45"/>
</svg>
