<svg width="16" height="16" viewBox="0 0 16 16" fill="none" xmlns="http://www.w3.org/2000/svg">
<path d="M4.41285 7.19333C5.37285 9.08 6.91951 10.62 8.80618 11.5867L10.2728 10.12C10.4528 9.94 10.7195 9.88 10.9528 9.96C11.6995 10.2067 12.5062 10.34 13.3328 10.34C13.6995 10.34 13.9995 10.64 13.9995 11.0067V13.3333C13.9995 13.7 13.6995 14 13.3328 14C7.07284 14 1.99951 8.92667 1.99951 2.66667C1.99951 2.3 2.29951 2 2.66618 2H4.99951C5.36618 2 5.66618 2.3 5.66618 2.66667C5.66618 3.5 5.79951 4.3 6.04618 5.04667C6.11951 5.28 6.06618 5.54 5.87951 5.72667L4.41285 7.19333Z"/>
</svg>
