<svg xmlns="http://www.w3.org/2000/svg" viewBox="0 0 50 50">
<path d="M48,4.3c1.1,0,1.7,0.7,1.5,1.7c-0.2,1.1-0.5,2.2-0.7,3.3c-2.5,11.4-4.9,22.9-7.4,34.3c-0.1,0.3-0.1,0.6-0.2,0.8c-0.3,0.8-1.1,1.1-1.9,0.7c-0.2-0.1-0.4-0.2-0.6-0.4c-3.5-2.4-7-4.9-10.5-7.3c-1.2-0.9-1.9-0.9-3.1,0.1c-1.9,1.5-3.7,2.9-5.6,4.4c-1.2,0.9-2.1,0.7-2.6-0.7c-1.4-4.2-2.7-8.4-4-12.5c-0.1-0.4-0.4-0.6-0.8-0.8c-3.4-1.2-6.8-2.4-10.2-3.6c-0.1,0-0.3-0.1-0.4-0.1c-0.6-0.2-1-0.6-1-1.2c0-0.7,0.4-1.1,1-1.3c2-0.7,4-1.5,6-2.2C20.7,14.4,34,9.4,47.2,4.5C47.5,4.4,47.8,4.3,48,4.3z M15.3,27.8c0,0.1,0.1,0.4,0.1,0.7c0.7,2.5,1.5,5.1,2.3,7.6c0.1,0.2,0.4,0.4,0.6,0.6c0.2-0.2,0.5-0.5,0.5-0.7c0.2-1.1,0.3-2.2,0.5-3.3c0.1-1.3,0.6-2.4,1.6-3.3c5.9-5.2,11.7-10.4,17.5-15.6c0.1-0.1,0.3-0.2,0.4-0.4c0.1-0.1,0.1-0.4,0.1-0.5c-0.1-0.1-0.3-0.1-0.5-0.1c-0.2,0-0.4,0.2-0.5,0.3C34.6,15,31.3,17,28,18.9c-3.8,2.2-7.5,4.5-11.3,6.7C15.9,26.1,15.3,26.7,15.3,27.8L15.3,27.8z"/>
</svg>
