<svg width="415" height="217" viewBox="0 0 415 217" fill="none" xmlns="http://www.w3.org/2000/svg">
<g>
<path d="M85.0448 40.3379C85.8381 39.6281 154.309 82.3855 158.4 77.7089C161.072 74.6607 145.708 50.8602 146.335 50.3174C146.961 49.7746 171.009 69.0238 177.105 66.602C186.123 63.011 181.948 18.7087 183.117 18.3329C184.453 17.9153 190.966 54.2424 204.201 55.0775C219.815 56.0796 247.329 -0.415249 248.248 0.00230329C249.751 0.712143 224.408 57.8334 230.838 64.3054C235.347 68.8567 264.697 49.8581 265.282 50.735C265.908 51.6953 238.394 72.1972 241.233 79.1285C245.408 89.3586 308.619 56.873 308.995 57.6246C309.329 58.2509 246.285 95.6636 247.955 102.929C249.542 109.944 280.228 111.155 280.27 111.906C280.27 112.575 262.109 112.909 258.184 121.51C252.089 134.914 293.213 178.882 292.503 179.968C291.793 181.053 241.776 136.166 236.223 140.091C231.756 143.265 243.279 180.218 242.319 180.385C241.066 180.594 229.961 147.816 223.155 149.152C216.434 150.488 212.133 188.36 210.797 188.152C209.461 187.985 212.718 149.945 204.201 148.359C193.387 146.355 159.027 216.712 157.148 216.002C156.522 215.752 189.505 151.532 186.582 148.735C180.361 142.847 122.537 189.989 121.994 189.362C120.992 188.319 172.763 138.797 168.588 132.45C163.744 125.143 127.881 136.208 127.38 135.498C127.004 134.955 160.822 119.422 158.818 114.621C157.398 111.238 130.261 117.084 130.052 116.291C129.676 114.913 140.656 114.078 141.408 99.6304C142.285 81.8426 84.669 40.8807 85.0448 40.3379Z" fill="white"/>
<path d="M127.13 68.2303C127.798 67.6457 160.28 84.5148 163.161 81.759C165.165 79.88 157.065 63.0944 157.566 62.6768C158.067 62.2175 176.521 72.9904 180.111 70.3598C185.33 66.4766 185.497 43.5529 186.416 43.2606C187.501 42.9266 194.181 59.5869 203.325 60.0462C213.345 60.5056 228.124 37.9995 228.834 38.3753C230.045 38.9598 221.528 64.0965 225.87 69.2742C228.792 72.7398 241.944 65.4327 242.445 66.1425C242.946 66.9359 232.007 78.0845 234.22 83.1369C237.059 89.609 262.193 80.047 262.485 80.6316C262.736 81.1327 240.984 98.8369 241.986 103.973C242.946 108.983 259.604 110.862 259.604 111.489C259.604 112.032 254.051 112.616 251.379 118.796C246.62 129.736 263.529 149.528 262.944 150.405C262.36 151.282 235.807 130.947 231.339 134.12C227.707 136.709 231.214 150.071 230.421 150.196C229.377 150.363 224.826 141.594 220.317 142.596C214.889 143.807 212.969 159.674 211.842 159.507C210.756 159.382 210.756 142.179 205.078 140.968C197.104 139.256 189.255 156.209 187.752 155.624C187.251 155.415 192.887 142.262 190.966 140.467C185.873 135.749 159.737 154.246 159.278 153.745C158.485 152.868 175.686 132.074 173.222 128.358C169.256 122.47 152.639 126.103 152.18 125.56C151.47 124.642 165.123 115.247 164.33 112.574C163.495 109.735 145.124 110.027 144.916 109.359C144.582 108.274 148.631 105.184 146.627 96.3733C143.538 83.1787 126.796 68.6478 127.13 68.2303Z" fill="white"/>
<path d="M195.601 117.544C195.434 117.46 195.267 117.418 195.1 117.335C193.597 116.667 192.094 115.957 190.633 115.122C184.37 111.656 178.943 107.23 174.976 101.175C173.306 98.6702 172.054 95.9143 171.428 92.9915C170.801 90.0686 170.801 87.2292 171.553 84.5569C171.511 84.5569 171.469 84.5569 171.386 84.5151C171.219 84.8074 171.052 85.058 170.927 85.3502C169.674 88.1896 168.463 90.9872 167.252 93.8266C166.543 95.4968 165.875 97.167 165.582 98.9625C165.207 101.259 165.332 103.472 165.791 105.685C166.501 108.984 167.962 111.99 169.883 114.746C173.265 119.631 177.648 123.473 182.658 126.521C187.167 129.277 191.969 131.281 197.104 132.534C199.693 133.16 202.323 133.619 205.037 133.786C209.462 134.079 213.804 133.786 218.063 132.492C220.651 131.699 223.073 130.529 225.286 128.901C227.916 126.897 229.711 124.308 231.005 121.302C232.634 117.544 234.304 113.827 235.974 110.111C235.181 111.406 234.22 112.575 233.093 113.66C225.87 121.552 210.589 123.431 195.601 117.544Z" fill="#020203"/>
<path d="M235.952 108.777C241.109 97.1392 231.312 81.5089 214.068 73.8653C196.825 66.2217 178.666 69.4593 173.508 81.0967C168.351 92.734 178.148 108.364 195.392 116.008C212.635 123.651 230.794 120.414 235.952 108.777Z" fill="#020203"/>
<path d="M30.6029 72.6146C29.6426 72.03 28.4736 71.5707 27.1376 71.3202C25.8851 71.0697 24.5908 70.9026 23.2548 70.8191C21.0838 70.6521 18.9127 70.5268 16.8252 70.4016C14.7377 70.2763 12.6502 70.0675 10.6461 69.7752H10.5209C10.4791 69.7752 10.3121 69.7752 10.0199 69.6082C9.60237 69.3994 9.18487 69.1489 8.72561 68.9819C8.26636 68.7731 7.84885 68.6061 7.4731 68.4391C6.67984 68.1468 6.09533 68.2303 5.71958 68.3973C5.17682 68.5643 4.63406 68.8566 4.17481 69.2324C3.63205 69.6917 3.2563 70.2346 3.0893 70.8191V70.9026C2.83879 72.1553 2.58829 73.408 2.42129 74.6189C2.25429 75.8298 2.12903 77.1242 2.08728 78.4186C2.04553 81.3415 2.00378 84.3896 1.96203 87.4795C1.92028 90.4859 2.00378 93.5757 2.12903 96.6656C2.33779 100.34 2.58829 104.015 2.92229 107.647C3.2563 111.28 3.5903 114.996 3.96606 118.712C3.96606 118.921 3.92431 119.213 3.88256 119.548C3.71555 120.675 4.21656 121.301 4.55056 121.552L4.63406 121.594C4.96807 121.844 5.42732 121.969 6.42934 122.053C7.09734 122.136 7.8906 122.178 8.72561 122.178C9.56062 122.22 10.3121 122.22 10.9801 122.22C11.0219 122.22 11.0219 122.22 11.0636 122.22L13.2347 121.802H13.2764C13.6104 121.719 13.9027 121.594 14.1949 121.468C14.6542 121.259 15.0717 120.884 15.2804 120.383C15.4892 119.923 15.5727 119.381 15.4892 118.629C15.5309 117.084 15.4474 115.456 15.2804 113.785C15.1134 112.073 14.9047 110.361 14.6124 108.608C14.3619 106.896 14.1114 105.184 13.9027 103.472C13.6939 101.802 13.5269 100.173 13.4852 98.6699C13.3599 95.246 13.3182 91.7385 13.2764 88.2728C13.2347 84.8071 13.2764 81.2997 13.3182 77.9175C13.3182 77.9175 13.3599 77.7087 13.7357 77.3747C14.0279 77.0824 14.3202 76.9154 14.5289 76.8319C15.6144 76.8319 16.4077 76.7901 16.9505 76.7901C17.4515 76.7484 17.9107 76.7484 18.3282 76.7901C18.7875 76.7901 19.3302 76.7901 19.873 76.7901C20.4158 76.7901 21.2508 76.7901 22.3363 76.8319C23.1295 76.8736 23.4218 77.0407 23.5053 77.1242C23.714 77.3329 23.8393 77.5417 23.9228 77.834C24.0063 78.2516 24.048 78.7526 24.0063 79.2954C23.9645 79.9635 23.9228 80.6316 23.9228 81.3415V81.425C23.9228 81.9678 23.7975 82.4688 23.6305 82.9699C23.3383 83.7633 23.2548 84.5566 23.3383 85.35C23.3383 85.5587 23.4218 85.7258 23.5053 85.8928C23.5888 86.0598 23.6723 86.2268 23.7975 86.3521C24.1733 86.7696 24.7578 87.0202 25.7181 87.1872C26.3861 87.3125 27.0958 87.396 27.8473 87.4795C28.5571 87.563 29.2251 87.6047 29.8514 87.6883C30.5611 87.7718 30.7281 87.8135 30.7699 87.8135L31.2709 88.0223L31.7719 87.7718C32.1476 87.7718 32.9409 87.563 33.2332 86.3938C33.3167 86.018 33.4002 85.6422 33.4419 85.1829C33.4837 84.7654 33.4837 84.3478 33.4837 83.9303C33.4837 83.5962 33.4837 83.4292 33.4837 83.3457V83.1787C33.4419 82.5941 33.4419 82.0095 33.5254 81.3832C33.6507 80.6316 33.7342 79.9218 33.8177 79.2954C33.9847 77.7087 33.7759 76.3726 33.1914 75.2869C32.4817 74.1178 31.6466 73.2409 30.6029 72.6146Z" fill="white"/>
<path d="M8.6006 124.099C7.72384 124.057 6.93058 124.015 6.17907 123.932C5.05181 123.806 4.2168 123.639 3.46529 123.138L3.25654 122.971C2.21278 122.094 1.75352 120.758 1.96227 119.255C2.00402 119.005 2.00402 118.838 2.00402 118.712C1.62827 115.038 1.29427 111.363 0.960262 107.772C0.626258 104.14 0.375755 100.382 0.167002 96.7073C0.0417505 93.5756 0 90.444 0 87.3959C0.0417505 84.3477 0.083501 81.2996 0.125252 78.335C0.167002 76.9153 0.292254 75.5791 0.459256 74.2847C0.626258 73.0321 0.876761 71.7376 1.12726 70.4432L1.16901 70.2345C1.46127 69.2741 2.00402 68.3972 2.88078 67.6874C3.50704 67.1863 4.17505 66.8105 4.92656 66.56C5.59457 66.2677 6.68008 66.0589 8.0161 66.6017C8.4336 66.7688 8.89286 66.9775 9.35211 67.1863C9.81137 67.3951 10.2706 67.6456 10.7299 67.8544H10.7716C12.7757 68.1467 14.7797 68.3555 16.8255 68.4807C18.913 68.606 21.084 68.773 23.2968 68.94C24.7163 69.0236 26.0941 69.2323 27.3883 69.4829C28.9331 69.7751 30.3109 70.318 31.4381 71.0278C32.7741 71.8629 33.8179 72.9485 34.5277 74.3682C35.2792 75.7879 35.5714 77.4999 35.3627 79.4624C35.2792 80.1305 35.1957 80.882 35.0704 81.6754C34.9869 82.1347 34.9869 82.594 35.0287 83.0116V83.4291C35.0287 83.5126 35.0287 83.6379 35.0287 83.8884C35.0287 84.3895 35.0287 84.8906 34.9869 85.3916C34.9452 85.9344 34.8617 86.4355 34.7364 86.8948C34.3189 88.6485 33.1081 89.4419 31.9809 89.6507L30.9789 90.11L29.8516 89.6089C29.7681 89.6089 29.6011 89.5671 29.3506 89.5254C28.7243 89.4836 28.0981 89.4001 27.3883 89.3166C26.5951 89.2331 25.8436 89.1496 25.1338 89.0243C24.2153 88.8573 23.0463 88.565 22.1695 87.6464C21.919 87.3959 21.7103 87.0618 21.5433 86.686C21.3763 86.3102 21.251 85.9344 21.251 85.5169C21.1258 84.4312 21.2928 83.3874 21.6268 82.3435C21.752 82.0512 21.7938 81.7172 21.7938 81.3414V81.2578C21.8355 80.548 21.8355 79.8382 21.8773 79.1283C21.8773 78.9613 21.8773 78.7943 21.8773 78.669C20.8753 78.6273 20.1237 78.6273 19.6227 78.6273C19.0382 78.6273 18.4955 78.6273 17.9945 78.6273C17.6605 78.6273 17.243 78.6273 16.7837 78.6273C16.3244 78.669 15.6982 78.669 14.9049 78.669C14.8632 81.8424 14.8214 85.0576 14.8632 88.231C14.9049 91.6549 14.9467 95.1623 15.0719 98.5863C15.1554 100.006 15.2807 101.593 15.4894 103.221C15.6982 104.891 15.9487 106.603 16.1992 108.315C16.4497 110.069 16.7002 111.864 16.8672 113.576C17.0342 115.288 17.1177 116.959 17.076 118.545C17.1595 119.589 17.0342 120.466 16.7002 121.218C16.2827 122.094 15.5729 122.804 14.6962 123.18C14.3622 123.347 13.9864 123.472 13.6107 123.598L13.4854 123.639L10.9386 124.099H10.6881C10.2289 124.141 9.47736 124.141 8.6006 124.099ZM5.71982 120.09C5.84507 120.132 6.05382 120.174 6.55483 120.216C7.22284 120.299 7.9326 120.341 8.72586 120.341C9.51912 120.383 10.1871 120.383 10.8134 120.383L12.7339 120.007C12.9427 119.923 13.1514 119.84 13.3602 119.756C13.4019 119.714 13.4854 119.673 13.5689 119.547C13.5689 119.547 13.6524 119.38 13.5689 118.838V118.545C13.6107 117.084 13.5272 115.539 13.4019 113.91C13.2349 112.24 13.0262 110.528 12.7757 108.816C12.5252 107.104 12.2746 105.351 12.0659 103.639C11.8571 101.927 11.6901 100.256 11.6066 98.7115C11.4814 95.2041 11.4396 91.6967 11.3979 88.231C11.3561 84.7653 11.3979 81.2578 11.4396 77.7922C11.4396 77.1241 11.8154 76.4977 12.4417 75.9132C12.9844 75.4121 13.5272 75.0781 14.0699 74.9528L14.2787 74.911H14.4874C15.5312 74.911 16.3244 74.8693 16.8255 74.8693C17.41 74.8275 17.911 74.8275 18.3702 74.8275C18.8295 74.8275 19.3305 74.8275 19.8315 74.8275C20.416 74.8275 21.251 74.8275 22.3783 74.8693C23.422 74.911 24.2153 75.1616 24.758 75.6209C25.2591 76.0802 25.5931 76.6648 25.7601 77.3328C25.8853 77.9174 25.9271 78.5855 25.8853 79.3371C25.8436 79.9634 25.8018 80.6315 25.8018 81.3414V81.4249C25.7601 82.1765 25.6348 82.8863 25.3843 83.5544C25.2173 84.0554 25.1338 84.5565 25.1756 85.0576C25.2591 85.0993 25.5096 85.1828 26.0106 85.2663C26.6368 85.3916 27.3048 85.4751 27.9728 85.5169C28.6826 85.6004 29.3506 85.6421 29.9769 85.7257C30.3526 85.7674 30.6866 85.8092 30.9371 85.8509H31.1041L31.1876 85.8927L31.2711 85.8509H31.3546C31.4381 85.6004 31.4799 85.2663 31.4799 84.9323C31.5216 84.5983 31.5216 84.2225 31.5216 83.8884C31.5216 83.5961 31.5216 83.3874 31.5216 83.2621V83.1786C31.4381 82.4687 31.4799 81.7171 31.6051 80.9656C31.7304 80.2557 31.8139 79.5876 31.8556 78.9613C31.9809 77.7504 31.8139 76.79 31.4381 75.9967C31.0206 75.2033 30.4361 74.6188 29.7264 74.1595C28.9331 73.7001 27.9728 73.3243 26.8873 73.1156C25.7183 72.865 24.5075 72.7398 23.255 72.6563C21.084 72.4892 18.913 72.364 16.8255 72.2387C14.7379 72.1134 12.6087 71.9047 10.5211 71.6124H10.4794C10.1036 71.5706 9.68612 71.4454 9.22686 71.1948C8.85111 70.986 8.4336 70.7773 8.05785 70.6103C7.64034 70.4015 7.26459 70.2762 6.88883 70.1092C6.76358 70.0674 6.63833 70.0257 6.59658 70.0257L6.51308 70.0674L6.38783 70.1092C6.05382 70.1927 5.76157 70.3597 5.51107 70.6103C5.26056 70.819 5.09356 71.0278 5.05181 71.2366C4.80131 72.4475 4.59256 73.6166 4.42555 74.7858C4.25855 75.9549 4.17505 77.1241 4.1333 78.3767C4.09155 81.2996 4.0498 84.3477 4.00805 87.3959C3.9663 90.3605 4.0498 93.4504 4.17505 96.4985C4.3838 100.131 4.63431 103.806 4.96831 107.397C5.30231 111.029 5.63632 114.746 6.01207 118.462V118.587V118.712C6.01207 118.963 5.97032 119.297 5.92857 119.714C5.71982 119.965 5.71982 120.048 5.71982 120.09Z" fill="white"/>
<path d="M78.1146 91.1954C78.0311 89.4835 77.7389 87.8133 77.2379 86.2683C76.7369 84.7651 76.1524 83.2202 75.4008 81.7587C74.6493 80.2973 73.8561 78.9194 72.9376 77.5832C72.0608 76.2888 71.184 74.9526 70.3908 73.6582V73.6165C69.7645 72.6978 68.7208 71.988 67.2178 71.4034C65.8817 70.9024 64.3787 70.5266 62.834 70.3178C61.2892 70.109 59.7862 70.0673 58.3666 70.1925C56.7801 70.3178 55.6111 70.6936 54.8179 71.3199L54.7761 71.3617C52.9391 72.9484 51.1856 74.5768 49.599 76.2888C48.0125 78.0008 46.5513 79.7962 45.257 81.717C43.9627 83.596 42.7937 85.642 41.8334 87.8133C40.8732 89.9428 40.0799 92.2393 39.5789 94.6611C39.2449 95.4127 39.0362 96.4566 38.8692 97.918C38.7022 99.3377 38.6187 100.799 38.5769 102.344C38.5352 103.847 38.5352 105.309 38.5352 106.687C38.5769 108.148 38.6187 109.15 38.7857 109.818L38.8274 109.944C39.0779 110.862 39.4954 111.739 39.9547 112.574C40.4139 113.409 40.9567 114.203 41.5829 114.996C42.1675 115.789 42.7937 116.541 43.42 117.251C44.0462 117.961 44.6307 118.629 45.2152 119.213C46.1337 120.299 47.5115 121.176 49.3903 121.844C51.1438 122.47 53.0226 122.929 55.0266 123.222C56.1956 123.389 57.4064 123.472 58.5754 123.514C59.3687 123.556 60.1202 123.556 60.8717 123.514C62.8757 123.43 64.504 123.138 65.7982 122.637C65.9652 122.554 66.3827 122.428 67.176 122.22C67.9275 122.053 68.679 121.844 69.4723 121.593C70.2655 121.384 71.0588 121.134 71.7686 120.883C72.6453 120.549 73.2298 120.215 73.6473 119.756C75.0668 118.128 76.1941 116.374 76.9874 114.62C77.8224 112.825 78.2816 110.862 78.4069 108.816C78.5739 105.893 78.6574 102.929 78.5739 100.048C78.3651 97.1247 78.2399 94.1601 78.1146 91.1954ZM67.8858 101.175C67.5518 103.722 67.2178 106.436 66.8002 109.15C66.508 110.779 66.0487 112.24 65.4642 113.534C64.9215 114.745 64.2117 115.748 63.3767 116.541C62.5417 117.292 61.5814 117.794 60.4542 118.044C59.3687 118.295 58.0744 118.211 56.6131 117.752C56.0286 117.543 55.4441 117.084 54.9431 116.499C54.2751 115.748 53.6488 114.996 53.0643 114.286C51.7283 112.616 50.7263 110.904 50.1 109.234C49.4738 107.563 49.1398 105.685 49.0563 103.597C49.1815 100.674 49.4738 97.9598 49.933 95.5797C50.3923 93.1997 51.1438 90.5273 52.1876 87.6045C53.2313 84.7234 54.7344 81.8005 56.7384 78.9194C57.6569 77.5415 59.0764 75.9548 60.4542 75.9965H60.4959C61.9572 76.08 63.2932 77.792 64.2117 79.2534C65.5895 81.6335 66.5915 84.0553 67.176 86.3936C67.8023 88.7736 68.1363 91.2372 68.2198 93.659C68.3033 96.0808 68.178 98.6279 67.8858 101.175Z" fill="white"/>
<path d="M58.367 125.393C57.1562 125.351 55.9037 125.268 54.6512 125.059C52.5219 124.767 50.5179 124.266 48.6391 123.598C46.4681 122.804 44.8815 121.76 43.7125 120.466C43.128 119.84 42.5435 119.172 41.9173 118.462C41.2493 117.71 40.623 116.917 39.9967 116.124C39.3287 115.247 38.7442 114.37 38.2432 113.493C37.7005 112.533 37.2412 111.489 36.949 110.445L36.8655 110.153C36.6985 109.359 36.615 108.274 36.615 106.687C36.5732 105.267 36.6149 103.806 36.6567 102.261C36.6985 100.674 36.8237 99.1291 36.9907 97.7095C37.1577 96.1645 37.4082 94.9954 37.784 94.1185C38.3267 91.6132 39.12 89.2331 40.1637 87.0201C41.2075 84.7653 42.3765 82.6358 43.7543 80.6733C45.0903 78.7108 46.6351 76.8318 48.3051 75.0364C49.9334 73.2826 51.7286 71.5707 53.6492 69.9422L53.6909 69.9005C54.8182 69.0236 56.2794 68.5225 58.2835 68.3555C59.8282 68.2302 61.4983 68.272 63.1683 68.5225C64.8383 68.7731 66.4666 69.1489 67.9696 69.7334C69.8484 70.4433 71.1844 71.4036 72.0194 72.6563L72.0611 72.6981C72.8961 73.9925 73.7729 75.3286 74.6079 76.6231C75.5264 78.001 76.4032 79.5042 77.1547 81.0074C77.948 82.5523 78.616 84.1808 79.117 85.7675C79.6597 87.4794 79.9937 89.3167 80.0772 91.1539V91.1956C80.2025 94.1603 80.286 97.1249 80.3695 100.006C80.453 102.971 80.3695 105.977 80.2025 108.942C80.0772 111.238 79.5345 113.409 78.616 115.414C77.7392 117.334 76.5284 119.213 74.9837 121.009C74.3574 121.719 73.5224 122.22 72.3534 122.679C71.6019 122.971 70.8086 123.222 69.9319 123.472C69.1386 123.681 68.3871 123.89 67.5938 124.099C66.7588 124.308 66.4666 124.391 66.4248 124.433C64.9218 125.017 63.0848 125.351 60.872 125.435C59.9952 125.393 59.1602 125.393 58.367 125.393ZM40.5395 109.401C40.7483 110.153 41.0823 110.904 41.4998 111.614C41.9173 112.366 42.4183 113.117 43.0028 113.827C43.5873 114.579 44.1718 115.288 44.7563 115.998C45.3408 116.708 45.9253 117.334 46.5098 117.919L46.5516 118.003C47.2613 118.838 48.3468 119.506 49.9334 120.09C51.5616 120.675 53.3151 121.092 55.1522 121.385C56.9892 121.635 58.868 121.719 60.6632 121.677C62.4585 121.593 63.878 121.343 65.0053 120.925C65.3393 120.8 65.8821 120.633 66.6336 120.466C67.3851 120.299 68.1366 120.09 68.8463 119.882C69.5978 119.673 70.3494 119.422 70.9756 119.213C71.6854 118.963 71.9776 118.754 72.1029 118.629C73.3554 117.126 74.3992 115.539 75.1507 113.952C75.8604 112.366 76.2779 110.612 76.4032 108.816C76.5702 105.935 76.6537 103.054 76.5702 100.173C76.4867 97.2919 76.4032 94.369 76.2779 91.4462V91.4044C76.1944 89.9012 75.9439 88.398 75.4847 86.9784C75.0254 85.5587 74.4409 84.139 73.7729 82.7611C73.0631 81.3832 72.2699 80.047 71.4349 78.7526C70.5581 77.4164 69.6813 76.122 68.8463 74.7858C68.4706 74.243 67.6773 73.7419 66.5501 73.2826C65.3393 72.8233 64.0033 72.4893 62.5838 72.2805C61.1642 72.0717 59.8282 72.03 58.534 72.1552C57.3232 72.2388 56.4882 72.4893 55.9872 72.9068C54.1919 74.41 52.5219 76.0385 50.9771 77.6669C49.4324 79.2954 48.0546 81.0491 46.8021 82.8446C45.5913 84.6401 44.464 86.6026 43.5455 88.6486C42.627 90.6528 41.9173 92.8241 41.4163 95.1206L41.3745 95.2877L41.291 95.4547C41.0405 96.0393 40.8735 96.9161 40.7065 98.1688C40.5395 99.5049 40.456 100.966 40.4142 102.428C40.3725 103.889 40.3725 105.351 40.3725 106.687C40.3725 107.898 40.4142 108.816 40.5395 109.401ZM58.9097 120.007C58.033 119.965 57.0727 119.798 56.1124 119.547L55.9872 119.506C55.1104 119.172 54.3172 118.587 53.5657 117.752C52.8976 116.959 52.2296 116.207 51.6451 115.497C50.1839 113.66 49.0983 111.781 48.3886 109.902C47.6788 108.065 47.3031 105.935 47.2196 103.68V103.597V103.513C47.3448 100.465 47.6788 97.7095 48.1381 95.2459C48.5973 92.7823 49.3906 89.9847 50.4761 86.9784C51.5616 83.9302 53.1482 80.8821 55.2357 77.834C56.9474 75.2869 58.7427 74.0342 60.538 74.076H60.6215C62.4168 74.2012 64.1703 75.5792 65.7985 78.2098L65.8403 78.2515C67.3016 80.7986 68.3453 83.3457 69.0133 85.851C69.6396 88.3563 70.0154 90.9451 70.1406 93.5339C70.2241 96.1228 70.1406 98.7533 69.8066 101.384C69.4726 103.973 69.1386 106.645 68.7211 109.401V109.484C68.3871 111.238 67.8861 112.867 67.2598 114.286C66.5918 115.748 65.7568 116.959 64.713 117.919C63.6275 118.879 62.4168 119.506 60.9555 119.84C60.2457 119.965 59.5777 120.049 58.9097 120.007ZM57.2397 115.957C58.3252 116.291 59.2855 116.332 60.0787 116.165C60.872 115.998 61.54 115.664 62.1245 115.121C62.7925 114.537 63.3353 113.743 63.7528 112.741C64.2538 111.614 64.6713 110.278 64.9218 108.816C65.2975 106.102 65.6733 103.43 66.0073 100.883C66.2996 98.4611 66.4248 96.0393 66.3413 93.6592C66.2578 91.3627 65.9238 89.0244 65.3393 86.7696C64.7965 84.5983 63.8363 82.3435 62.5838 80.1305C61.4147 78.2515 60.5797 77.834 60.371 77.7922C60.204 77.7922 59.4107 78.2098 58.2835 79.9217C56.4047 82.6776 54.9434 85.4752 53.9414 88.1893C52.9394 91.0286 52.1879 93.6175 51.7704 95.8722C51.3529 98.127 51.0606 100.716 50.9354 103.555C50.9771 105.392 51.3111 107.063 51.8539 108.482C52.3966 109.986 53.3151 111.53 54.5259 113.034C55.0687 113.702 55.6949 114.453 56.3629 115.163C56.6552 115.581 56.9474 115.831 57.2397 115.957Z" fill="white"/>
<path d="M120.033 118.253C119.657 116.416 119.114 114.161 118.404 111.447C117.736 108.775 116.943 105.768 116.066 102.47C115.19 99.2126 114.271 95.8305 113.353 92.4065C112.434 89.0243 111.516 85.6422 110.597 82.3853C109.72 79.0866 108.885 76.122 108.176 73.4496C107.967 72.698 107.299 72.0717 106.255 71.5706C105.42 71.1948 104.543 70.9026 103.583 70.7355C102.623 70.5685 101.704 70.485 100.869 70.5268C99.575 70.6103 98.7817 71.0696 98.5312 71.9047V71.9464C98.1137 73.4079 97.6544 74.9946 97.1534 76.5813C96.6524 78.2515 96.1097 79.9217 95.5669 81.6337C95.0242 83.3456 94.5231 85.0576 94.0221 86.7278C93.5629 88.398 93.1036 89.9847 92.7696 91.4461C91.6006 96.2898 90.4316 101.092 89.2626 105.852C88.1353 110.57 86.8828 115.372 85.5468 120.09C85.2128 121.134 85.2545 122.095 85.6303 122.888C85.839 123.305 86.6741 124.6 88.7616 123.723C89.0538 123.598 89.1791 123.598 89.1373 123.598C89.8053 123.514 90.1393 123.138 90.3064 122.888C90.4734 122.554 90.4734 122.22 90.4734 121.969C90.4734 121.927 90.5151 121.844 90.5151 121.76L90.5569 121.635C91.2666 118.378 92.0599 114.954 92.8949 111.447C93.7299 107.939 94.6484 104.349 95.5669 100.758C96.4854 97.1666 97.4874 93.5339 98.4477 89.9847C99.074 87.6882 99.742 85.4334 100.368 83.2204C100.535 83.8049 100.744 84.473 100.953 85.1411C101.621 87.4376 102.289 89.9847 102.957 92.7406C103.667 95.5382 104.376 98.4193 105.044 101.342C105.796 104.516 106.464 107.313 107.132 109.944C107.8 112.7 108.468 115.247 109.094 117.501C109.72 119.756 110.388 121.593 110.973 122.971C111.265 123.765 111.808 124.391 112.643 124.767C113.311 125.101 114.021 125.268 114.856 125.268C114.939 125.268 114.981 125.268 115.064 125.268C115.941 125.268 116.86 125.059 117.778 124.683C118.738 124.266 119.573 123.598 120.283 122.721L120.492 122.47L120.534 122.136C120.575 121.635 120.575 120.842 120.033 118.253Z" fill="white"/>
<path d="M114.773 127.105C113.687 127.063 112.685 126.854 111.809 126.395C110.556 125.811 109.638 124.808 109.178 123.598C108.552 122.178 107.926 120.257 107.258 117.961C106.59 115.664 105.922 113.117 105.254 110.361C104.628 107.772 103.96 104.933 103.166 101.76C102.498 98.8784 101.789 95.9973 101.079 93.1997C100.828 92.1558 100.536 91.1119 100.286 90.1098C100.244 90.2351 100.202 90.3604 100.202 90.4856C99.2001 94.0348 98.2398 97.6258 97.3213 101.217C96.4028 104.766 95.4843 108.357 94.6493 111.864C93.8142 115.372 93.021 118.796 92.3112 122.011L92.2695 122.136C92.2695 122.721 92.1442 123.264 91.8937 123.723C91.7267 124.057 91.518 124.307 91.2257 124.558L91.3092 124.85L90.3072 125.142C90.0567 125.268 89.8062 125.351 89.5139 125.393C89.4722 125.393 89.4304 125.435 89.3469 125.435C86.7167 126.52 84.6709 125.351 83.8359 123.681C83.4184 122.846 83.0426 121.426 83.6271 119.506C84.9631 114.787 86.2156 110.027 87.3429 105.35C88.5119 100.59 89.6392 95.7885 90.85 90.9449C91.2257 89.4417 91.6432 87.8133 92.1442 86.1431C92.6452 84.4729 93.1462 82.7191 93.689 81.0072C94.2317 79.2952 94.7745 77.625 95.2755 75.9965C95.7765 74.4098 96.2358 72.8649 96.6115 71.4035L96.6533 71.32C96.9455 70.3596 97.864 68.7729 100.703 68.6059C101.705 68.5641 102.749 68.6059 103.834 68.8146C104.962 69.0234 106.005 69.3575 106.924 69.775C108.469 70.4848 109.471 71.5287 109.846 72.8231V72.8649C110.556 75.5372 111.391 78.5436 112.268 81.8005C113.145 85.0992 114.063 88.4396 115.023 91.8218C115.984 95.2457 116.902 98.6279 117.737 101.885C118.614 105.142 119.407 108.148 120.117 110.862C120.827 113.576 121.37 115.915 121.787 117.752C122.372 120.466 122.413 121.468 122.33 122.22L122.205 123.096L121.662 123.765C120.743 124.892 119.658 125.727 118.447 126.27C117.278 126.771 116.151 127.021 114.982 127.021C114.982 127.105 114.856 127.105 114.773 127.105ZM88.6372 121.969L89.0547 123.431L88.8042 121.76C88.7624 121.802 88.6789 121.844 88.6372 121.969ZM100.286 76.6646L102.123 82.6356C102.331 83.262 102.498 83.93 102.707 84.5981C103.375 86.9364 104.043 89.4835 104.753 92.2393C105.463 95.0787 106.172 97.9598 106.84 100.841C107.592 104.014 108.26 106.812 108.886 109.401C109.554 112.115 110.222 114.662 110.848 116.875C111.475 119.046 112.059 120.8 112.644 122.094L112.685 122.22C112.811 122.512 113.019 122.762 113.395 122.929C113.854 123.138 114.397 123.264 115.023 123.264C115.65 123.264 116.318 123.096 116.986 122.804C117.612 122.554 118.155 122.094 118.656 121.552C118.656 121.217 118.572 120.424 118.155 118.545C117.779 116.75 117.236 114.495 116.527 111.823C115.817 109.15 115.023 106.102 114.188 102.887C113.312 99.63 112.393 96.2896 111.475 92.8657C110.514 89.4835 109.638 86.1013 108.719 82.8444C107.842 79.5875 107.007 76.6229 106.298 73.9088C106.214 73.7 105.88 73.4495 105.379 73.1989C104.711 72.9067 103.96 72.6561 103.166 72.4891C102.373 72.3221 101.622 72.2803 100.912 72.3221C100.536 72.3638 100.327 72.4056 100.244 72.4473C99.8681 73.867 99.3671 75.4537 98.8661 77.0822C98.365 78.7524 97.8223 80.4226 97.2795 82.1346C96.7368 83.8048 96.2358 85.5167 95.7765 87.1452C95.3173 88.7737 94.8998 90.3603 94.524 91.8218C93.355 96.6654 92.186 101.467 91.0587 106.227C89.9314 110.946 88.6372 115.789 87.3012 120.549V120.633C87.1342 121.217 87.0924 121.677 87.2594 122.011C87.3429 122.178 87.7187 122.094 88.0109 121.969C88.3032 121.844 88.4702 121.802 88.5537 121.76L88.5954 121.51C88.5954 121.426 88.6372 121.343 88.6789 121.134V121.092C89.3887 117.835 90.1819 114.411 91.017 110.904C91.852 107.397 92.7705 103.764 93.689 100.173C94.6075 96.5401 95.6095 92.9074 96.6115 89.3582C97.2378 87.1034 97.9058 84.8069 98.532 82.5939L100.286 76.6646Z" fill="white"/>
<path d="M315.884 111.782C315.216 109.151 314.422 106.186 313.546 102.929C312.669 99.7143 311.792 96.3739 310.832 92.9917C309.913 89.6095 308.995 86.3108 308.118 83.0539C307.241 79.797 306.448 76.8741 305.697 74.2018C305.488 73.4502 304.862 72.8239 303.776 72.3646C302.983 71.9888 302.064 71.6965 301.146 71.5295C300.185 71.3625 299.309 71.2789 298.474 71.3207C297.179 71.4042 296.428 71.8635 296.136 72.6986V72.7404C295.718 74.2018 295.301 75.7468 294.8 77.3335C294.299 78.9619 293.756 80.6321 293.213 82.3023C292.67 83.9725 292.169 85.6845 291.71 87.313C291.251 88.9414 290.833 90.5281 290.458 91.9896C289.289 96.7914 288.161 101.51 286.992 106.228C285.865 110.905 284.613 115.623 283.318 120.341C282.984 121.385 283.026 122.304 283.402 123.097C283.611 123.515 284.446 124.767 286.491 123.932C286.784 123.807 286.909 123.807 286.867 123.807C287.535 123.724 287.869 123.39 287.994 123.097C288.161 122.763 288.161 122.429 288.161 122.179C288.161 122.137 288.203 122.053 288.203 121.97L288.245 121.845C288.955 118.629 289.748 115.247 290.583 111.782C291.418 108.316 292.295 104.725 293.213 101.217C294.132 97.6265 295.092 94.0773 296.094 90.5699C296.72 88.3151 297.346 86.0603 298.014 83.889C298.181 84.4736 298.39 85.1417 298.599 85.8098C299.267 88.1063 299.935 90.6116 300.603 93.3257C301.313 96.0816 301.981 98.9627 302.691 101.844C303.442 104.975 304.11 107.773 304.736 110.32C305.404 113.034 306.072 115.54 306.699 117.794C307.325 120.049 307.951 121.845 308.536 123.181C308.828 123.974 309.371 124.559 310.206 124.976C310.874 125.268 311.583 125.477 312.377 125.477C312.46 125.477 312.502 125.477 312.585 125.477C313.462 125.477 314.339 125.269 315.257 124.893C316.176 124.475 317.011 123.849 317.762 122.972L317.971 122.721L318.013 122.387C318.055 121.97 318.055 121.176 317.512 118.629C317.136 116.709 316.593 114.454 315.884 111.782Z" fill="white"/>
<path d="M312.335 127.273C311.291 127.231 310.289 127.022 309.413 126.605C308.16 126.02 307.283 125.06 306.824 123.849C306.198 122.429 305.572 120.55 304.904 118.253C304.277 115.999 303.609 113.452 302.941 110.738C302.315 108.149 301.647 105.393 300.896 102.219C300.228 99.3801 299.518 96.5407 298.808 93.7431C298.558 92.6992 298.307 91.6971 298.015 90.695C297.973 90.8202 297.931 90.9455 297.931 91.0708C296.971 94.5782 296.011 98.1274 295.092 101.677C294.174 105.184 293.297 108.733 292.462 112.199C291.627 115.665 290.834 119.047 290.166 122.262L290.124 122.387C290.124 122.972 289.999 123.473 289.748 123.974C289.581 124.308 289.372 124.559 289.122 124.809L289.205 125.101L288.245 125.394C287.995 125.519 287.744 125.561 287.452 125.644C287.41 125.644 287.368 125.686 287.285 125.686C284.655 126.772 282.651 125.602 281.857 123.974C281.44 123.139 281.064 121.719 281.649 119.84C282.943 115.164 284.195 110.487 285.323 105.852C286.45 101.134 287.619 96.3737 288.788 91.6136C289.164 90.1104 289.581 88.5237 290.04 86.8535C290.5 85.1833 291.042 83.4713 291.585 81.7594C292.128 80.0891 292.629 78.4189 293.172 76.7905C293.673 75.2038 294.132 73.7006 294.508 72.2809L294.549 72.1556C294.842 71.237 295.76 69.6503 298.516 69.4833C299.476 69.4415 300.52 69.4833 301.647 69.6921C302.733 69.9009 303.776 70.2349 304.737 70.6524C306.281 71.3623 307.242 72.4062 307.659 73.6588V73.7006C308.369 76.3729 309.162 79.2958 310.081 82.5527C310.957 85.8096 311.876 89.1083 312.794 92.4905C313.713 95.8726 314.631 99.2131 315.508 102.428C316.385 105.643 317.137 108.65 317.846 111.322C318.556 113.994 319.099 116.291 319.475 118.128C320.059 120.801 320.101 121.803 320.017 122.554L319.892 123.431L319.349 124.099C318.431 125.227 317.387 126.062 316.176 126.563C315.049 127.064 313.88 127.314 312.753 127.314C312.502 127.314 312.419 127.314 312.335 127.273ZM286.45 122.178L286.867 123.64L286.617 121.97C286.575 122.053 286.533 122.095 286.45 122.178ZM298.015 77.4168L299.852 83.3043C300.061 83.9306 300.228 84.557 300.436 85.2668C301.104 87.5633 301.772 90.1104 302.44 92.8245C303.15 95.6221 303.86 98.5032 304.528 101.343C305.279 104.474 305.947 107.272 306.574 109.819C307.242 112.533 307.868 114.997 308.494 117.21C309.12 119.381 309.705 121.093 310.248 122.387L310.289 122.512C310.415 122.805 310.623 123.055 310.999 123.222C311.458 123.431 312.001 123.556 312.586 123.556C313.212 123.556 313.838 123.389 314.506 123.097C315.091 122.847 315.675 122.429 316.176 121.844C316.176 121.51 316.093 120.759 315.675 118.88C315.3 117.084 314.757 114.871 314.089 112.241C313.379 109.568 312.627 106.562 311.751 103.389C310.916 100.173 309.997 96.833 309.079 93.4508C308.16 90.0687 307.242 86.77 306.365 83.5131C305.488 80.2562 304.695 77.3333 303.985 74.7027C303.902 74.4939 303.568 74.2434 303.067 74.0346C302.399 73.7423 301.647 73.4918 300.854 73.3665C300.061 73.1995 299.309 73.1578 298.641 73.1995C298.265 73.2413 298.057 73.283 297.973 73.3248C297.597 74.7445 297.138 76.2894 296.637 77.9179C296.136 79.5463 295.593 81.2165 295.051 82.9285C294.508 84.5987 294.007 86.2689 293.547 87.8974C293.088 89.5258 292.671 91.0708 292.337 92.4905C291.168 97.2506 290.04 102.011 288.871 106.729C287.744 111.406 286.492 116.166 285.156 120.884V120.968C284.989 121.51 284.947 121.97 285.114 122.304C285.197 122.471 285.573 122.387 285.865 122.262C286.158 122.137 286.325 122.095 286.366 122.095L286.408 121.886C286.408 121.803 286.45 121.719 286.492 121.51V121.469C287.201 118.253 287.995 114.871 288.83 111.406C289.665 107.94 290.541 104.349 291.46 100.8C292.378 97.2088 293.339 93.6178 294.341 90.1104C294.967 87.8556 295.593 85.6008 296.261 83.3878L298.015 77.4168Z" fill="white"/>
<path d="M358.137 116.041C357.677 115.54 357.218 115.08 356.675 114.704C355.757 114.036 355.005 114.078 354.504 114.203C352.918 114.537 351.498 114.913 350.288 115.373C349.077 115.832 347.908 116.291 346.822 116.792C345.737 117.252 344.61 117.669 343.482 118.045C342.397 118.379 341.144 118.629 339.683 118.796C339.599 118.796 339.516 118.755 339.391 118.713C339.224 118.671 339.057 118.546 338.89 118.421C338.681 118.295 338.556 118.128 338.389 118.003C338.347 117.961 338.305 117.92 338.305 117.92C337.971 116.542 337.721 114.997 337.47 113.326C337.261 111.573 337.053 109.903 336.886 108.399C336.76 106.813 337.094 106.437 337.094 106.395C337.428 106.061 337.888 105.894 338.514 105.811C339.307 105.727 340.226 105.727 341.186 105.811C342.355 105.936 343.524 105.852 344.61 105.644L345.57 105.477L345.612 104.516C345.612 104.433 345.612 104.182 345.612 103.765C345.612 103.431 345.57 103.055 345.57 102.595C345.57 102.178 345.57 101.802 345.528 101.426C345.528 101.134 345.528 100.925 345.528 100.842L345.57 99.5055L344.276 99.589C343.065 99.6308 342.146 99.756 341.395 99.9648C340.727 100.132 340.101 100.341 339.474 100.549C338.931 100.758 338.305 100.925 337.679 101.134C337.345 101.217 336.886 101.301 336.385 101.343C336.218 99.9648 336.092 98.5451 336.009 97.1255C335.925 95.2882 335.8 93.451 335.717 91.572C335.633 89.693 335.508 87.814 335.341 85.9768C335.174 84.0978 334.923 82.2188 334.589 80.3816C334.381 79.0454 334.631 78.7114 334.631 78.7114C334.798 78.5861 335.299 78.2938 336.677 78.2521H336.719C337.846 78.1686 338.848 78.2521 339.725 78.5026C340.643 78.7949 341.562 79.1289 342.397 79.5882C343.274 80.0476 344.192 80.5904 345.111 81.2167C346.113 81.8848 347.282 82.4694 348.492 82.9704L348.743 83.0539H348.993C349.745 83.0122 350.496 82.7616 351.123 82.2606C351.749 81.8013 352.208 81.2585 352.5 80.5904C352.834 79.8805 352.876 79.0872 352.667 78.3356C352.417 77.5005 351.749 76.8742 350.705 76.3731L350.622 76.3313C347.699 75.2457 344.735 74.5776 341.771 74.2853L341.979 74.0348C342.647 73.1997 343.441 72.4481 344.276 71.78C345.236 71.0702 346.154 70.3186 346.989 69.6087C347.908 68.8154 348.659 67.9385 349.202 67.0199C349.828 65.976 350.037 64.7234 349.87 63.3872L349.745 62.3851L348.701 62.3433C347.866 62.3016 346.906 62.6774 345.779 63.4707C344.985 64.0553 344.192 64.7234 343.399 65.5585C343.608 64.7234 343.524 63.8465 343.232 62.9279L342.898 62.0093L341.938 62.1345C341.102 62.2181 340.226 62.7191 339.182 63.5542C338.263 64.3058 337.428 65.2662 336.593 66.3518C335.758 67.4375 335.09 68.6484 334.631 69.901C334.088 71.2789 333.963 72.6151 334.255 73.7843L334.339 74.1183C332.669 74.1183 330.999 74.2018 329.287 74.2853C328.744 74.3271 328.16 74.4523 327.659 74.6611C327.116 74.8699 326.615 75.1622 326.198 75.538C325.697 75.9555 325.363 76.4566 325.196 77.0412C325.07 77.4587 324.945 78.1686 325.321 79.0037C325.905 82.3858 326.406 85.8933 326.824 89.4007C327.241 92.9917 327.659 96.6244 327.993 100.215C328.327 103.806 328.661 107.439 328.953 111.113C329.245 114.746 329.579 118.421 329.955 121.97V122.053C330.08 122.68 330.414 123.306 330.999 123.891C331.583 124.517 332.21 124.893 332.836 124.976H332.919C333.42 125.018 333.921 125.06 334.464 125.06C336.176 125.101 337.888 124.976 339.599 124.684C341.729 124.308 343.942 123.807 346.071 123.223C348.2 122.638 350.329 122.053 352.417 121.511C354.463 120.968 356.508 120.508 358.512 120.258L359.055 120.174L359.347 119.715C359.723 119.13 359.723 118.421 359.347 117.544C358.972 117.126 358.596 116.583 358.137 116.041ZM338.472 71.9053C339.098 71.3625 339.683 70.7779 340.226 70.2351C339.766 71.3625 339.599 72.4898 339.766 73.5755L339.85 74.3271C338.723 74.2853 337.554 74.2853 336.385 74.2436C336.969 73.4085 337.679 72.6151 338.472 71.9053Z" fill="white"/>
<path d="M334.255 127.106C333.712 127.106 333.17 127.064 332.627 127.022L332.46 126.98C331.416 126.813 330.456 126.27 329.579 125.31C328.786 124.433 328.285 123.515 328.076 122.512L328.034 122.262C327.658 118.671 327.324 115.038 327.032 111.364C326.74 107.731 326.406 104.057 326.072 100.507C325.738 96.9583 325.32 93.3256 324.903 89.7346C324.485 86.3107 323.984 82.9285 323.442 79.6298C322.982 78.3354 323.149 77.2915 323.358 76.5817C323.65 75.6631 324.193 74.9115 324.903 74.2434C325.487 73.7423 326.155 73.3248 326.949 73.0325C327.658 72.7402 328.41 72.6149 329.12 72.5314C330.122 72.4897 331.165 72.4479 332.209 72.4062C332.251 71.404 332.46 70.4019 332.877 69.358C333.42 67.9384 334.172 66.6022 335.09 65.3913C336.009 64.1804 336.969 63.1365 337.971 62.3014C339.265 61.2158 340.476 60.5894 341.687 60.4642L344.15 60.1719L344.818 62.0509C346.237 61.0487 347.532 60.5894 348.784 60.6312L351.373 60.7147L351.707 63.3035C351.957 65.0572 351.623 66.6857 350.788 68.1054C350.12 69.191 349.243 70.2349 348.2 71.1535C347.448 71.8216 346.613 72.4897 345.778 73.1578C347.615 73.5336 349.452 74.0764 351.289 74.7027L351.498 74.7862C353.46 75.6631 354.212 76.9575 354.504 77.9179C354.88 79.1288 354.755 80.3397 354.254 81.5088C353.836 82.4274 353.168 83.2208 352.333 83.8471C351.373 84.5569 350.329 84.9327 349.16 85.0163L348.492 85.058L347.866 84.8075C346.53 84.2647 345.277 83.5966 344.15 82.8867C343.273 82.3022 342.438 81.8011 341.603 81.3418C340.852 80.966 340.058 80.632 339.265 80.3814C338.639 80.1726 337.846 80.1309 336.927 80.1726H336.844C336.718 80.1726 336.635 80.1726 336.551 80.1726C336.885 82.0516 337.136 83.9306 337.303 85.8514C337.47 87.6886 337.595 89.6093 337.679 91.5301C337.762 93.4091 337.887 95.2463 337.971 97.0835C338.013 97.7516 338.054 98.4615 338.096 99.1295C338.388 99.046 338.722 98.9208 338.973 98.8372C339.641 98.6285 340.309 98.3779 341.019 98.2109C341.895 97.9604 342.939 97.8351 344.317 97.7516L347.657 97.5846L347.573 100.925C347.573 101.009 347.573 101.134 347.573 101.384C347.573 101.76 347.573 102.136 347.615 102.595C347.615 103.013 347.615 103.389 347.657 103.723C347.657 104.182 347.657 104.474 347.657 104.599L347.573 107.063L345.194 107.522C343.941 107.773 342.605 107.815 341.269 107.689C340.434 107.606 339.641 107.606 338.973 107.689C338.973 107.689 338.973 107.689 338.931 107.689C338.931 107.815 338.931 108.023 338.973 108.232C339.14 109.694 339.349 111.364 339.557 113.118C339.724 114.495 339.933 115.748 340.184 116.917C341.311 116.75 342.271 116.541 343.106 116.291C344.192 115.957 345.277 115.539 346.279 115.08C347.406 114.579 348.617 114.12 349.828 113.66C351.122 113.159 352.584 112.742 354.254 112.408C355.005 112.199 356.383 112.074 357.928 113.201C358.554 113.66 359.18 114.203 359.681 114.788L359.765 114.871C360.307 115.498 360.767 116.207 361.101 116.959C361.894 118.796 361.476 120.132 360.975 120.884L360.224 122.053L358.846 122.262C356.926 122.512 354.922 122.93 353.001 123.473C350.913 124.057 348.784 124.642 346.655 125.185C344.442 125.769 342.188 126.27 340.017 126.646C337.971 127.022 336.092 127.147 334.255 127.106ZM333.003 123.306C335.007 123.515 337.094 123.389 339.14 123.055C341.227 122.68 343.357 122.22 345.444 121.636C347.573 121.051 349.661 120.508 351.748 119.924C353.669 119.381 355.631 118.963 357.552 118.671C357.552 118.629 357.51 118.546 357.468 118.462C357.301 118.045 357.051 117.669 356.675 117.293V117.251C356.341 116.876 355.965 116.541 355.548 116.249C355.256 116.04 355.047 115.999 355.005 116.04L354.796 116.082C353.335 116.374 351.999 116.75 350.872 117.168C349.703 117.627 348.534 118.086 347.448 118.546C346.321 119.005 345.152 119.464 343.941 119.84C342.772 120.216 341.353 120.508 339.766 120.675L339.557 120.717L339.349 120.675C339.14 120.633 338.889 120.592 338.681 120.508C338.388 120.383 338.054 120.216 337.762 120.007C337.47 119.798 337.219 119.59 337.011 119.339C336.927 119.256 336.885 119.172 336.844 119.13L336.593 118.796L336.51 118.379C336.176 116.917 335.883 115.331 335.675 113.577C335.466 111.823 335.257 110.153 335.09 108.608C334.923 106.896 335.174 105.769 335.883 105.101C336.51 104.474 337.345 104.098 338.347 104.015C339.265 103.89 340.309 103.89 341.436 104.015C342.271 104.098 343.064 104.098 343.816 103.973C343.816 103.931 343.816 103.89 343.816 103.89C343.816 103.556 343.774 103.138 343.774 102.72C343.774 102.303 343.774 101.927 343.732 101.593C342.981 101.635 342.396 101.76 341.895 101.885C341.269 102.052 340.685 102.261 340.1 102.428C339.516 102.637 338.889 102.846 338.221 103.055C337.762 103.18 337.178 103.305 336.51 103.347L334.756 103.472L334.547 101.718C334.38 100.299 334.255 98.8372 334.172 97.3758C334.088 95.5386 333.963 93.7014 333.879 91.8224C333.796 89.9851 333.671 88.1061 333.504 86.3107C333.337 84.5152 333.086 82.678 332.752 80.8825V80.799C332.669 80.1726 332.627 79.6716 332.669 79.2123L332.209 78.4189L333.504 77.4168C334.172 76.9157 335.174 76.6234 336.593 76.5817C337.929 76.4982 339.14 76.5817 340.225 76.9157C341.269 77.208 342.271 77.6256 343.231 78.1684C344.192 78.6695 345.152 79.254 346.112 79.8804C346.989 80.4649 347.949 80.966 349.035 81.4253C349.369 81.3835 349.703 81.2583 349.995 81.0078C350.371 80.7155 350.621 80.4232 350.788 80.0474C350.913 79.7551 350.955 79.4211 350.872 79.1288C350.746 78.7947 350.245 78.5024 349.953 78.3354C347.198 77.3333 344.4 76.707 341.603 76.4147L340.559 76.3312L339.85 76.2894C338.848 76.2477 337.804 76.2477 336.51 76.2059H334.38C332.669 76.2059 330.998 76.2894 329.412 76.3729C329.078 76.4147 328.702 76.4982 328.326 76.6234C327.992 76.7487 327.658 76.9575 327.408 77.1663C327.157 77.375 327.032 77.5838 326.949 77.8343C326.865 78.0431 326.907 78.2519 327.032 78.5024L327.116 78.7112L327.157 78.92C327.742 82.3439 328.243 85.8514 328.702 89.4006C329.12 92.9915 329.537 96.666 329.871 100.257C330.205 103.848 330.539 107.522 330.831 111.155C331.124 114.788 331.458 118.42 331.833 121.928C331.875 122.178 332.084 122.512 332.376 122.805C332.543 123.055 332.794 123.264 333.003 123.306ZM341.52 64.3056C341.227 64.4309 340.81 64.7232 340.267 65.1407C339.474 65.8088 338.722 66.6439 337.971 67.6043C337.261 68.5647 336.677 69.6086 336.259 70.6942C336.092 71.07 336.009 71.4458 335.925 71.7798C336.343 71.3205 336.76 70.903 337.219 70.4854C337.804 69.9844 338.347 69.4415 338.889 68.8987L341.144 66.6439L341.478 65.266C341.561 64.9737 341.603 64.6397 341.52 64.3056ZM342.772 68.9822L341.979 70.9447C341.895 71.1953 341.812 71.404 341.728 71.6546C342.146 71.237 342.605 70.8612 343.106 70.4854C344.025 69.7756 344.901 69.0657 345.695 68.3559C346.446 67.6878 347.072 66.978 347.532 66.2264C347.824 65.6836 347.991 65.1407 347.991 64.4727C347.699 64.5979 347.281 64.8067 346.738 65.1825C346.029 65.6836 345.319 66.3099 344.651 67.0197L342.772 68.9822Z" fill="white"/>
<path d="M412.912 121.218C412.369 120.383 411.451 119.757 410.156 119.464C409.154 119.214 408.069 119.047 406.941 118.963C405.856 118.88 404.854 118.838 404.019 118.88C403.977 118.88 403.894 118.88 403.852 118.88C403.852 118.462 403.894 117.836 403.977 116.834C404.144 114.955 404.311 112.658 404.52 109.986C404.729 107.272 404.854 104.224 404.979 101.05C405.063 97.7934 404.979 94.5783 404.729 91.4466C404.436 88.2732 403.852 85.3504 403.017 82.7615C402.14 80.0474 400.804 77.9179 399.051 76.373C398.591 75.8301 397.84 75.3708 396.754 74.9115C395.794 74.494 394.709 74.1182 393.623 73.7424C392.496 73.4083 391.41 73.1161 390.366 72.8655C389.239 72.615 388.404 72.5315 387.82 72.5732C385.106 72.7403 382.684 73.4501 380.597 74.7863C378.509 76.0807 376.798 78.0014 375.545 80.4232C374.209 82.9285 373.165 85.4339 372.497 87.9392C371.829 90.4027 371.328 92.9081 371.078 95.4134C370.827 97.9187 370.744 100.466 370.869 103.055C370.994 105.56 371.203 108.19 371.454 110.821C371.454 111.322 371.537 111.948 371.704 112.742C371.871 113.493 372.038 114.287 372.205 115.164C372.372 116.082 372.581 116.917 372.748 117.711C372.79 117.919 372.873 118.128 372.915 118.337C372.79 118.337 372.623 118.379 372.456 118.379C371.537 118.462 370.577 118.546 369.616 118.713C368.656 118.88 367.738 119.047 366.944 119.297C365.734 119.631 365.024 120.258 364.815 121.093L364.773 121.26V121.427C364.815 122.763 364.94 123.222 365.066 123.515C365.358 124.183 366.026 124.433 366.736 124.559C366.861 124.809 366.986 125.06 367.07 125.352C367.237 125.978 367.445 126.563 367.612 127.147C367.821 127.774 368.03 128.4 368.322 128.943C368.656 129.653 369.157 130.237 369.825 130.697L369.951 130.78C370.201 130.905 370.577 131.072 371.12 131.198C371.579 131.323 372.08 131.406 372.623 131.448C372.748 131.448 372.831 131.448 372.957 131.448C373.416 131.448 373.833 131.448 374.251 131.365C375.002 131.239 375.545 130.905 375.921 130.363L376.13 130.07L376.171 128.859L374.877 123.849C375.67 123.849 376.547 123.849 377.507 123.89C379.136 123.932 380.806 123.974 382.517 124.016L387.444 124.183C389.03 124.225 390.367 124.225 391.452 124.183C392.204 124.183 393.331 124.183 394.667 124.183C396.045 124.225 397.548 124.266 399.051 124.308C400.595 124.392 402.057 124.475 403.476 124.559C403.81 124.6 404.144 124.6 404.436 124.642C404.395 124.684 404.353 124.726 404.353 124.726C404.019 125.06 403.643 125.477 403.267 126.02C402.892 126.563 402.474 127.273 402.015 128.233L401.681 128.901L402.098 129.486C402.933 130.571 403.727 131.239 404.645 131.448C405.397 131.615 406.148 131.699 406.9 131.615L407.359 131.573L407.651 131.198C408.319 130.404 408.904 129.82 409.363 129.486C409.947 129.026 410.49 128.567 410.949 128.066C411.45 127.523 411.91 126.772 412.244 125.853C412.578 125.018 412.828 123.765 413.079 122.137L413.162 121.677L412.912 121.218ZM394.5 83.2626C395.21 85.0998 395.711 87.2293 396.003 89.5676C396.295 91.9477 396.462 94.453 396.462 96.9583C396.462 99.5054 396.379 102.052 396.17 104.516C395.961 106.98 395.752 109.318 395.502 111.447C395.251 113.535 395.043 115.331 394.792 116.834C394.667 117.627 394.583 118.254 394.542 118.755C393.957 118.755 393.206 118.755 392.371 118.796C391.494 118.796 390.492 118.796 389.448 118.796C388.404 118.796 387.36 118.755 386.358 118.713C385.398 118.671 384.48 118.629 383.686 118.546C383.269 118.504 382.935 118.462 382.726 118.421C382.559 117.961 382.434 117.585 382.309 117.293C382.142 116.959 382.016 116.583 381.891 116.166C381.766 115.79 381.599 115.289 381.474 114.746C381.307 114.203 381.181 113.41 380.973 112.324C380.555 109.652 380.221 107.021 380.054 104.516C379.887 102.011 379.887 99.5054 380.054 97.1253C380.221 94.7035 380.639 92.3235 381.223 89.9434C381.808 87.6051 382.726 85.2251 383.853 82.845C384.229 82.0517 384.605 81.2583 384.981 80.5067C385.356 79.7551 385.69 79.0871 386.066 78.4607C386.358 77.9597 386.692 77.5839 387.026 77.2916C387.277 77.0828 387.444 77.0828 387.611 77.0828H387.653C389.364 77.2081 390.7 77.7926 391.828 78.8783C392.872 80.0057 393.832 81.4671 394.5 83.2626Z" fill="white"/>
<path d="M372.832 133.244C372.707 133.244 372.581 133.244 372.414 133.202C371.788 133.16 371.162 133.035 370.619 132.91C369.909 132.742 369.408 132.575 368.991 132.325L368.699 132.158C367.78 131.532 367.07 130.696 366.569 129.694C366.235 129.026 365.985 128.358 365.776 127.607C365.609 127.064 365.442 126.563 365.275 125.978C364.148 125.519 363.605 124.767 363.313 124.183C363.021 123.515 362.895 122.721 362.854 121.343V120.926L362.937 120.508C363.187 119.464 364.023 118.086 366.319 117.377C367.196 117.126 368.156 116.917 369.2 116.75C369.617 116.667 370.035 116.625 370.452 116.583C370.369 116.207 370.285 115.832 370.202 115.456C370.035 114.579 369.868 113.786 369.701 113.034C369.534 112.157 369.45 111.447 369.408 110.821C369.158 108.19 368.949 105.56 368.824 103.055C368.699 100.382 368.782 97.7098 369.033 95.121C369.283 92.5322 369.784 89.9016 370.494 87.3128C371.204 84.6822 372.289 82.0516 373.709 79.421C375.128 76.7069 377.049 74.5774 379.387 73.0742C381.725 71.6128 384.439 70.7777 387.486 70.6107C388.238 70.5689 389.198 70.6524 390.492 70.9447C391.578 71.1535 392.747 71.4875 393.916 71.8633C395.085 72.2391 396.212 72.6567 397.256 73.116C398.508 73.6588 399.427 74.2434 400.095 74.9532C402.057 76.7069 403.56 79.087 404.562 82.0934C405.439 84.8492 406.065 87.8973 406.358 91.196C406.65 94.4112 406.733 97.7098 406.65 101.008C406.566 104.224 406.399 107.272 406.191 110.028C405.982 112.742 405.815 115.038 405.648 116.917C405.648 116.917 405.648 116.917 405.648 116.959C406.065 116.959 406.483 117.001 406.9 117.043C408.111 117.126 409.28 117.293 410.407 117.585C412.161 118.003 413.455 118.88 414.29 120.132L414.916 121.093L414.749 122.22C414.499 124.016 414.165 125.352 413.831 126.312C413.413 127.44 412.871 128.4 412.161 129.11C411.618 129.694 410.992 130.279 410.282 130.78C410.073 130.947 409.614 131.323 408.863 132.2L408.069 133.118L406.859 133.244C405.898 133.369 404.896 133.285 403.936 133.035C402.6 132.701 401.431 131.824 400.345 130.362L399.218 128.859L400.053 127.189C400.262 126.771 400.429 126.396 400.638 126.062C400.011 126.02 399.343 125.978 398.675 125.978C397.172 125.895 395.711 125.853 394.333 125.853C392.997 125.853 391.954 125.811 391.202 125.853C390.075 125.895 388.697 125.895 387.069 125.853L382.142 125.686C380.472 125.644 378.802 125.602 377.174 125.561C377.09 125.561 377.049 125.561 376.965 125.561L377.717 128.442L377.633 130.488L377.09 131.239C376.422 132.158 375.462 132.743 374.251 132.993C373.959 133.202 373.416 133.244 372.832 133.244ZM370.786 129.11C370.87 129.152 371.078 129.235 371.496 129.319C371.872 129.402 372.289 129.486 372.707 129.527C372.79 129.527 372.874 129.527 372.957 129.527C373.291 129.527 373.583 129.527 373.876 129.444C374.084 129.402 374.168 129.36 374.251 129.319V128.985L372.414 121.886H374.836C375.629 121.886 376.548 121.886 377.508 121.928C379.178 121.97 380.848 122.011 382.518 122.053L387.445 122.22C388.989 122.262 390.284 122.262 391.286 122.22H391.327C392.121 122.22 393.248 122.22 394.626 122.22C396.045 122.262 397.506 122.304 399.051 122.345C400.596 122.429 402.099 122.512 403.518 122.596C403.852 122.638 404.187 122.638 404.521 122.679L408.529 122.972L405.564 125.936C405.272 126.229 404.98 126.563 404.646 127.022C404.354 127.398 404.061 127.941 403.727 128.567C404.187 129.11 404.604 129.444 404.98 129.527C405.439 129.653 405.898 129.694 406.358 129.653C407.067 128.859 407.652 128.275 408.195 127.857C408.696 127.481 409.155 127.064 409.531 126.646C409.865 126.27 410.199 125.728 410.449 125.018C410.7 124.35 410.95 123.306 411.159 121.97C410.867 121.636 410.366 121.385 409.698 121.218C408.779 121.009 407.777 120.842 406.775 120.759C405.731 120.675 404.813 120.633 404.02 120.675L401.974 120.717V118.796C401.974 118.253 402.015 117.502 402.099 116.625C402.266 114.788 402.433 112.491 402.642 109.777C402.85 107.063 402.976 104.098 403.101 100.883C403.184 97.7098 403.101 94.5364 402.85 91.4883C402.558 88.4819 402.015 85.6843 401.222 83.179C400.471 80.7989 399.302 78.92 397.799 77.6255L397.632 77.4585C397.423 77.2498 397.005 76.874 396.003 76.4564C395.085 76.0806 394.083 75.7048 393.039 75.3708C391.995 75.0367 390.952 74.7444 389.95 74.5774C388.781 74.3269 388.196 74.2851 387.904 74.3269C385.524 74.4521 383.395 75.1202 381.558 76.2476C379.762 77.375 378.301 79.0452 377.174 81.1747C375.88 83.5966 374.919 85.9766 374.251 88.3149C373.583 90.6949 373.124 93.1168 372.874 95.4968C372.623 97.8769 372.54 100.382 372.665 102.846C372.79 105.351 372.957 107.898 373.249 110.529V110.737C373.249 111.072 373.333 111.614 373.458 112.282C373.625 113.034 373.792 113.869 373.959 114.704C374.126 115.581 374.293 116.416 374.502 117.126C374.544 117.377 374.627 117.585 374.669 117.794L375.17 119.924L372.999 120.091C372.874 120.091 372.707 120.132 372.54 120.132C371.705 120.174 370.786 120.299 369.868 120.425C368.991 120.55 368.156 120.759 367.404 120.968C366.903 121.093 366.653 121.26 366.611 121.385C366.611 122.095 366.695 122.387 366.695 122.512C366.736 122.554 366.862 122.554 367.029 122.596L367.905 122.763L368.323 123.556C368.532 123.932 368.657 124.308 368.782 124.725C368.949 125.31 369.158 125.895 369.325 126.479C369.492 127.022 369.701 127.565 369.951 128.024C370.16 128.525 370.41 128.818 370.786 129.11ZM386.234 120.592C385.232 120.55 384.272 120.508 383.437 120.383C383.019 120.341 382.601 120.258 382.309 120.216L381.265 120.007L380.931 119.005C380.764 118.587 380.639 118.253 380.556 118.003C380.389 117.627 380.222 117.21 380.096 116.75C379.971 116.333 379.804 115.79 379.637 115.205C379.47 114.621 379.303 113.744 379.094 112.616C378.635 109.902 378.343 107.23 378.134 104.641C377.967 102.052 377.967 99.4636 378.134 96.9582C378.343 94.4529 378.76 91.9058 379.387 89.4423C380.013 86.9787 380.931 84.4734 382.142 82.0099C382.518 81.2165 382.894 80.4649 383.269 79.6716C383.645 78.8782 384.021 78.1266 384.439 77.5003C384.856 76.7904 385.315 76.2476 385.816 75.8301C386.401 75.3708 387.069 75.162 387.737 75.2455C389.824 75.4125 391.62 76.1641 392.997 77.542C394.375 78.8782 395.461 80.5484 396.254 82.5944C397.005 84.5987 397.548 86.8535 397.882 89.317C398.174 91.7806 398.341 94.3277 398.341 96.9165C398.341 99.5053 398.258 102.094 398.049 104.641C397.84 107.147 397.632 109.485 397.381 111.614C397.131 113.702 396.922 115.539 396.671 117.043C396.546 117.794 396.463 118.42 396.421 118.922L396.212 120.55H394.584C393.999 120.55 393.29 120.55 392.413 120.592C391.494 120.592 390.492 120.592 389.407 120.592C388.363 120.633 387.278 120.633 386.234 120.592ZM384.021 116.708C384.731 116.792 385.524 116.834 386.359 116.875C387.361 116.917 388.405 116.917 389.449 116.959C390.492 116.959 391.453 116.959 392.329 116.959C392.538 116.959 392.747 116.959 392.914 116.959C392.914 116.834 392.956 116.708 392.956 116.583C393.164 115.122 393.415 113.326 393.624 111.28C393.874 109.193 394.083 106.854 394.292 104.391C394.5 101.969 394.584 99.4636 394.584 96.9582C394.584 94.4947 394.417 92.1146 394.166 89.7763C393.916 87.6051 393.415 85.6426 392.789 83.9306C392.204 82.4274 391.411 81.1748 390.451 80.2144C389.741 79.5463 388.906 79.1705 387.862 79.0035C387.779 79.087 387.695 79.2123 387.612 79.3793C387.278 79.9221 386.944 80.5484 386.61 81.2583C386.234 82.0516 385.858 82.845 385.482 83.5966C384.397 85.8513 383.562 88.1061 382.977 90.3192C382.393 92.5739 382.017 94.8705 381.85 97.167C381.683 99.5053 381.683 101.885 381.85 104.307C382.017 106.771 382.351 109.36 382.768 111.948C382.977 113.201 383.144 113.827 383.228 114.161C383.353 114.704 383.52 115.122 383.645 115.498C383.771 115.832 383.896 116.166 384.021 116.458C383.979 116.583 383.979 116.625 384.021 116.708ZM387.319 78.9617C387.361 78.9617 387.361 78.9617 387.319 78.9617V78.9617Z" fill="white"/>
</g>
</svg>
