<svg width="538" height="172" viewBox="0 0 538 172" fill="none" xmlns="http://www.w3.org/2000/svg">
<path d="M64.0652 80.7016C68.0602 80.7016 71.3893 82.0978 74.0526 84.8903C76.8491 87.6828 78.314 91.0072 78.4471 94.8636C78.4471 94.9965 78.4471 95.196 78.4471 95.4619C78.4471 99.0523 76.9823 102.244 74.0526 105.036C71.123 107.829 67.7938 109.225 64.0652 109.225H14.9268C11.065 109.225 7.73586 107.829 4.93937 105.036C2.27604 102.244 0.877795 98.8528 0.744629 94.8636C0.744629 94.7306 0.744629 94.5311 0.744629 94.2652C0.744629 90.6748 2.20946 87.5499 5.13911 84.8903C8.06877 82.0978 11.3313 80.7016 14.9268 80.7016H64.0652Z" fill="#81898F"/>
<path d="M222.206 15.4767C222.206 16.4025 222.08 17.3283 221.768 18.2C217.517 30.081 206.077 36.0215 187.449 36.0215C183.987 36.0215 180.059 35.8221 175.664 35.4231C171.403 34.8912 168.007 34.4258 165.477 34.0269C163.08 33.628 159.285 32.9631 154.091 32.0322C153.562 31.9374 153.057 31.8467 152.577 31.7602C148.598 31.0439 144.573 33.4542 143.243 37.2719C142.261 40.0949 141.224 42.8911 140.134 45.6605C139.503 47.2614 140.785 48.9867 142.506 48.9867C150.096 48.9867 157.021 49.9176 163.28 51.7792C169.539 53.5079 174.799 55.9015 179.06 58.9599C183.321 61.8854 186.917 65.4093 189.846 69.5316C192.776 73.6538 194.907 77.9756 196.238 82.4967C197.57 87.0179 198.236 91.7386 198.236 96.6587C198.236 105.302 196.372 113.547 192.643 121.392C188.914 129.105 183.321 135.488 175.864 140.541C168.54 145.594 160.217 148.121 150.895 148.121C136.513 148.121 121.399 142.07 105.552 129.969C101.557 126.512 99.5597 121.658 99.5597 115.408C99.5597 110.089 101.091 105.369 104.154 101.246C107.217 97.1241 111.212 95.063 116.139 95.063C117.071 95.063 118.003 95.1295 118.935 95.2625C121.998 96.0603 123.53 98.3209 123.53 102.044C123.53 102.31 123.53 102.709 123.53 103.241C123.53 103.64 123.53 103.906 123.53 104.039C123.53 107.007 125.557 109.358 128.089 110.907C132.025 113.317 136.631 115.615 141.907 117.802C149.098 120.727 155.423 122.19 160.883 122.19C169.938 122.19 174.466 117.603 174.466 108.427C174.466 107.762 174.466 107.031 174.466 106.233C173.933 97.3236 170.138 89.5445 163.08 82.8957C156.022 76.2469 148.165 72.9225 139.51 72.9225C133.517 72.9225 128.124 74.7176 123.33 78.308C120.001 80.7016 116.938 81.8984 114.141 81.8984C110.565 81.8984 108.206 78.4056 107.853 74.8467C107.784 74.1535 107.749 73.4456 107.749 72.723C107.749 67.9359 109.281 62.2179 112.344 55.569C115.406 48.9202 118.536 42.2049 121.732 35.4231C124.127 30.2411 125.699 25.6566 126.449 21.6695C126.919 19.1693 127.217 16.5847 128.476 14.3737C129.87 11.9227 131.884 9.56435 134.516 7.29863C138.378 3.84125 142.173 2.11256 145.902 2.11256C147.776 2.11256 149.447 3.12458 151.09 4.02736C157.236 7.405 166.559 9.09381 179.06 9.09381C182.256 9.09381 186.784 8.96084 192.643 8.69489C198.502 8.42893 202.63 8.29595 205.027 8.29595C210.62 8.29595 214.882 8.82786 217.811 9.89167C220.741 10.9555 222.206 12.8172 222.206 15.4767Z" fill="#81898F"/>
<path d="M321.13 2.11256C342.969 26.0483 353.889 52.3111 353.889 80.901C353.889 81.4329 353.889 81.9648 353.889 82.4967C353.889 83.0287 353.889 83.6271 353.889 84.2919C353.889 91.3397 352.624 99.1188 350.094 107.629C347.564 116.14 344.168 124.185 339.907 131.764C335.645 139.344 330.252 145.661 323.727 150.714C317.335 155.767 310.61 158.293 303.552 158.293C296.761 158.293 290.036 155.9 283.377 151.113C277.918 146.591 273.19 142.336 269.195 138.347C265.2 134.225 261.072 129.57 256.811 124.384C252.683 119.198 249.22 113.746 246.424 108.028C243.76 102.31 241.963 96.3928 241.031 90.2759C240.764 87.6163 240.631 84.8903 240.631 82.0978C240.631 75.316 241.297 68.3348 242.629 61.1541C244.093 53.9733 246.291 46.9256 249.22 40.0108C252.15 33.0961 255.612 26.9127 259.607 21.4606C263.735 15.8756 268.663 11.4209 274.389 8.09649C280.115 4.63911 286.307 2.91041 292.965 2.91041C293.446 2.91041 293.929 2.92032 294.415 2.94012C301.61 3.23348 309.135 0.317383 316.336 0.317383C318.334 0.317383 319.932 0.915777 321.13 2.11256ZM264.601 66.3401V66.1407C264.468 67.8694 264.401 69.5981 264.401 71.3267C264.401 74.3886 264.732 77.4505 265.393 80.5124C267.242 89.0719 277.655 90.7428 283.577 84.2919C287.972 79.3718 291.767 74.9836 294.963 71.1273C298.159 67.138 301.954 63.0822 306.349 58.9599C308.595 56.8483 310.842 54.9659 313.089 53.3127C316.697 50.658 318.273 45.7617 315.981 41.9133C315.924 41.8168 315.866 41.7205 315.809 41.6244C313.311 37.454 307.215 37.2183 302.354 37.2183C300.09 37.2183 298.159 36.6199 296.561 35.4231C293.544 32.9129 291.84 28.3913 287.942 27.9362C287.413 27.8744 286.89 27.8435 286.374 27.8435C282.911 27.8435 279.782 29.2397 276.985 32.0322C274.189 34.8247 271.992 38.4151 270.394 42.8033C268.796 47.0586 267.531 51.1808 266.599 55.1701C265.666 59.0264 265.001 62.7498 264.601 66.3401ZM319.83 125.72C320.479 124.457 321.109 123.181 321.803 121.943C327.347 112.056 330.119 101.168 330.119 89.2785C330.119 79.2281 317.902 76.2396 311.055 83.5964C304.592 90.5395 296.985 98.4957 288.233 107.465C285.709 110.051 285.569 114.106 287.972 116.805C290.236 119.065 292.1 120.927 293.565 122.39C295.03 123.852 296.761 125.515 298.758 127.376C300.889 129.238 302.953 130.634 304.95 131.565C306.948 132.363 308.812 132.762 310.543 132.762C314.318 132.762 317.413 130.414 319.83 125.72Z" fill="#81898F"/>
<path d="M483.506 12.8836C487.102 8.0965 491.296 5.70293 496.09 5.70293C498.487 5.70293 500.818 6.36781 503.081 7.69757C505.212 8.89436 506.943 10.756 508.275 13.2826C509.607 15.6761 510.272 18.1362 510.272 20.6628C510.272 23.1893 509.607 25.3834 508.275 27.2451C475.383 70.1964 447.018 116.007 423.182 164.676C422.116 166.937 420.452 168.665 418.188 169.862C415.924 171.059 413.527 171.657 410.997 171.657C408.334 171.657 405.937 171.059 403.806 169.862C399.145 167.203 396.815 163.147 396.815 157.695C396.815 155.168 397.414 152.708 398.613 150.315C422.449 101.645 450.747 55.835 483.506 12.8836ZM418.587 2.31203C428.841 3.90774 436.565 8.22947 441.758 15.2772C447.085 22.325 449.748 30.4365 449.748 39.6119C449.748 50.117 446.552 59.3589 440.16 67.3374C433.768 75.316 425.312 79.3053 414.792 79.3053C411.197 79.3053 407.468 78.7734 403.606 77.7096C396.149 75.715 389.957 71.7257 385.03 65.7417C380.102 59.6248 377.639 52.7765 377.639 45.1969C377.639 44.9376 377.556 44.6853 377.407 44.4732C374.765 40.7178 373.444 36.8368 373.444 32.8301C373.444 24.9845 377.639 17.8038 386.028 11.2879C394.418 4.77209 403.074 1.51417 411.996 1.51417C414.393 1.51417 416.59 1.78012 418.587 2.31203ZM417.788 49.5851C420.851 47.4575 422.383 44.5985 422.383 41.0081C422.383 38.4816 421.451 36.221 419.586 34.2263C419.398 34.0111 419.208 33.8047 419.016 33.6071C416.64 31.1536 412.815 33.4085 410.398 35.8221C408.4 37.8167 407.069 40.0108 406.403 42.4044C406.27 43.0693 406.203 43.6677 406.203 44.1996C406.203 46.0612 406.935 47.5905 408.4 48.7873C409.998 49.984 411.796 50.5824 413.793 50.5824C414.726 50.5824 415.591 50.4495 416.39 50.1835C416.923 50.0505 417.389 49.8511 417.788 49.5851ZM535.84 101.446C536.639 104.77 537.039 108.095 537.039 111.419C537.039 123.786 532.844 134.69 524.455 144.131C516.198 153.44 507.01 158.094 496.889 158.094C490.764 158.094 485.104 156.033 479.911 151.91C477.17 149.806 474.671 147.109 472.413 143.82C468.172 137.642 462.013 132.675 457.946 126.382C456.343 123.901 455.541 121.041 455.541 117.802C455.541 111.951 458.005 105.834 462.932 99.4512C467.992 92.9354 474.451 87.4834 482.308 83.0951C490.164 78.7069 497.821 76.5128 505.279 76.5128C519.927 76.5128 530.114 84.8238 535.84 101.446ZM498.833 129.499C499 129.551 499.174 129.62 499.34 129.677C499.693 129.797 500.059 129.683 500.393 129.516L500.684 129.371C501.281 129.073 501.691 128.505 502.008 127.919C502.035 127.869 502.06 127.821 502.083 127.775C502.349 127.376 502.615 126.977 502.882 126.578C502.915 126.529 502.947 126.479 502.978 126.429C503.388 125.774 503.734 125.075 504.08 124.384C504.162 124.22 504.219 124.081 504.251 123.968C504.282 123.854 504.327 123.739 504.411 123.655C504.456 123.61 504.491 123.556 504.513 123.495C505.832 119.924 507.019 115.699 508.075 110.821C508.175 109.924 508.237 109.325 508.262 109.026C508.273 108.893 508.239 108.616 508.213 108.485C508.078 107.801 507.627 107.309 507.077 106.881C506.844 106.701 506.592 106.531 506.32 106.37C504.73 105.434 502.769 106.228 501.607 107.662C501.264 108.086 500.89 108.54 500.485 109.026C499.153 110.621 498.021 112.017 497.089 113.214C496.29 114.278 495.558 115.674 494.892 117.403C494.226 118.999 493.893 120.528 493.893 121.991C493.893 122.922 493.96 123.852 494.093 124.783C494.102 124.82 494.112 124.857 494.122 124.892C494.34 125.679 494.779 126.341 495.235 127.018C495.374 127.224 495.578 127.466 495.761 127.635C496.224 128.06 496.733 128.44 497.289 128.773C497.851 129.109 498.365 129.351 498.833 129.499Z" fill="#81898F"/>
</svg>
