<svg xmlns="http://www.w3.org/2000/svg" viewBox="0 0 101 25">
<path d="M37.4,25c-15,0-27.9-0.9-33.7-3.3c-1-0.4-3-1.3-2.7-2.8c0.5-2.6,9-3,40.2-3c19.2,0,45.6,0,47.5-2.6c0,0,0,0,0,0c-1.8-2.1-21.2-2.9-35.4-3.5c-15.6-0.6-30.4-1.2-35-3.2c-0.5-0.2-1.9-0.8-1.6-2C17.2,2.3,24,1.7,55.1,1c10.2-0.2,20.8-0.4,22.1-1L78,1.9C76.3,2.6,68.6,2.8,55.1,3C42.5,3.3,24.1,3.7,19.5,4.9C24.1,6.6,39,7.2,53.4,7.8c24.7,1,35.7,1.7,37.1,4.7c0.2,0.4,0.4,1.1-0.3,2c-2.4,3.2-20.1,3.4-49.1,3.4c-15.3,0-34.2,0-37.8,1.4c0.2,0.1,0.6,0.3,1.1,0.6c13.8,5.8,68.4,2.5,95.4-0.1l0.2,2C84.2,23.2,58.7,25,37.4,25z"/>
</svg>
