<svg width="64" height="80" viewBox="0 0 64 80" fill="none" xmlns="http://www.w3.org/2000/svg">
<g clip-path="url(#clip0_2083_4747)">
<path d="M16.9933 8.2329C10.6507 10.8964 1.67767 13.7102 1.67767 13.7102C1.67767 13.7102 1.32181 30.2791 2.33648 37.0286C3.29808 43.425 5.54425 53.5757 13.2055 63.7899C19.373 72.0125 26.6886 76.908 32.0713 79.7324V-0.0383534C26.103 4.05517 20.8453 6.61517 16.9933 8.2329Z" fill="url(#paint0_linear_2083_4747)"/>
<path d="M18.8892 13.6138C14.4657 15.7835 5.61883 18.3599 5.61883 18.3599C5.61883 18.3599 5.31043 32.716 6.1897 38.5642C7.04592 44.2594 8.96382 53.6745 15.6072 61.7518C25.3102 73.5489 32.0711 75.583 32.0711 75.583V6.42711C32.0711 6.42711 23.7407 11.3087 18.8892 13.6138Z" fill="url(#paint1_linear_2083_4747)"/>
<path d="M19.4719 14.8979C15.2492 16.9691 6.80398 19.4287 6.80398 19.4287C6.80398 19.4287 6.50952 33.1334 7.34876 38.7161C8.16602 44.1527 9.99688 53.1404 16.339 60.8512C25.6015 72.1128 32.0557 74.0547 32.0557 74.0547V8.0375C32.0557 8.0375 24.1031 12.6974 19.4719 14.8979Z" fill="url(#paint2_linear_2083_4747)"/>
<path d="M10.1345 19.7939C9.42683 21.1693 8.7192 22.5446 8.01172 23.92C9.27839 23.7082 10.3251 23.7181 11.0442 23.7672C12.3458 23.856 13.4029 23.9424 13.9251 24.6839C14.2649 25.1667 14.2371 25.7264 14.2283 25.9439C14.1625 27.576 14.2973 31.6359 14.5316 37.2524C14.7437 38.4224 15.1892 40.3783 16.1994 42.601C17.316 45.0574 18.9596 47.4823 26.5857 54.75C27.9199 56.0214 29.834 57.8195 32.1958 59.9458C32.1705 58.278 32.1453 56.6099 32.12 54.9418C30.729 53.8513 29.3103 52.6815 27.8745 51.4271C25.0399 48.9504 22.5214 46.4777 20.2933 44.0917C19.4113 42.8047 18.218 40.7386 17.5641 37.9792C17.2361 36.5957 17.1697 35.5132 17.1092 34.77C16.7385 30.2156 16.8122 25.2814 16.9576 21.6277C16.2054 21.1723 15.1344 20.63 13.7735 20.2524C12.4481 19.8845 11.2741 19.7913 10.3871 19.7913C10.3 19.7913 10.2159 19.7922 10.1345 19.7939Z" fill="url(#paint3_linear_2083_4747)"/>
<path d="M8.46875 23.1558C8.99474 23.0714 9.7571 22.9967 10.6673 23.0795C11.8624 23.188 13.0969 23.3002 13.7756 24.2256C14.2361 24.8534 14.2335 25.5874 14.2305 25.9065C14.2114 27.8896 14.3471 31.8812 14.5337 37.215C14.7459 38.385 15.1913 40.341 16.2016 42.5636C17.2102 44.7828 18.8199 47.3636 26.5879 54.7127C27.9151 55.9684 29.8378 57.7567 32.2248 59.8662C32.1652 58.5049 32.1058 57.1438 32.0464 55.7823C30.6484 54.6218 29.2312 53.4002 27.8009 52.1148C25.0788 49.6682 22.5815 47.2343 20.2955 44.856C19.2362 43.4232 17.8285 41.1077 17.1113 37.9792C16.7813 36.5389 16.7142 35.4266 16.6565 34.3114C16.5185 31.6517 16.3729 27.8451 16.3532 23.0031V21.9332C15.5375 21.4687 14.4704 20.9567 13.1691 20.5579C12.0259 20.2075 10.9901 20.0326 10.1366 19.9467C9.58076 21.0165 9.02476 22.086 8.46875 23.1558Z" fill="url(#paint4_linear_2083_4747)"/>
<path d="M32.0547 79.7529C36.9578 77.221 44.5793 72.3957 51.0558 63.7899C52.0623 62.4528 59.808 51.1102 61.925 37.0286C62.9395 30.2792 62.5837 13.7102 62.5837 13.7102L47.2681 8.23292C45.1235 7.33145 42.8469 6.27242 40.48 5.02497C37.3276 3.36354 34.526 1.637 32.0706 -0.038336C32.0653 26.5586 32.06 53.1558 32.0547 79.7529Z" fill="url(#paint5_linear_2083_4747)"/>
<path d="M32.0742 75.583C32.0742 75.583 38.8189 73.5489 48.522 61.7518C55.1656 53.6745 57.0835 44.2594 57.9397 38.5642C58.8187 32.716 58.5103 18.3599 58.5103 18.3599C58.5103 18.3599 49.6634 15.7835 45.2401 13.6138C40.3885 11.3087 32.0742 6.42711 32.0742 6.42711V75.583Z" fill="url(#paint6_linear_2083_4747)"/>
<mask id="mask0_2083_4747" style="mask-type:luminance" maskUnits="userSpaceOnUse" x="-63" y="-42" width="195" height="157">
<path d="M-62.0859 -41.6048H131.993V114.88H-62.0859V-41.6048Z" fill="white"/>
</mask>
<g mask="url(#mask0_2083_4747)">
<path d="M32.0547 8.0375C32.0547 8.0375 40.0071 12.6975 44.6383 14.8981C48.8611 16.9692 57.3064 19.4287 57.3064 19.4287C57.3064 19.4287 57.6007 33.1334 56.7615 38.7161C55.9442 44.1527 54.1133 53.1405 47.7713 60.8513C38.5087 72.113 32.0547 74.0547 32.0547 74.0547V8.0375Z" fill="#0A0B0B"/>
</g>
<path d="M50.7954 20.1787C49.4045 20.5566 48.3099 21.0996 47.5415 21.5553C47.6899 25.2122 47.7653 30.1508 47.3864 34.7095C47.3245 35.4534 47.2566 36.5369 46.9217 37.9216C46.2531 40.6836 45.0338 42.7517 44.1325 44.0399C41.8554 46.428 39.2818 48.9027 36.3848 51.3819C34.9175 52.6374 33.4677 53.8082 32.0461 54.8998C32.0203 56.5693 31.9945 58.2388 31.9688 59.9082C34.3823 57.7801 36.3384 55.9805 37.702 54.7078C45.4953 47.4336 47.1752 45.0064 48.3162 42.5478C49.3486 40.323 49.8039 38.3652 50.0207 37.1942C50.26 31.5726 50.3977 27.5089 50.3306 25.8754C50.3215 25.6578 50.293 25.0976 50.6404 24.6144C51.1741 23.8723 52.2544 23.7855 53.5845 23.6967C54.3196 23.6475 55.3891 23.6376 56.6836 23.8497C55.9605 22.4731 55.2374 21.0965 54.5143 19.7198C54.4312 19.7181 54.3452 19.7172 54.2565 19.7172C53.3499 19.7172 52.1501 19.8106 50.7954 20.1787Z" fill="url(#paint7_linear_2083_4747)"/>
<mask id="mask1_2083_4747" style="mask-type:luminance" maskUnits="userSpaceOnUse" x="-63" y="-42" width="195" height="157">
<path d="M-62.0859 -41.6048H131.993V114.88H-62.0859V-41.6048Z" fill="white"/>
</mask>
<g mask="url(#mask1_2083_4747)">
<path d="M54.5256 19.8795L56.2308 23.0887C55.693 23.0042 54.9136 22.9296 53.9831 23.0123C52.7613 23.1209 51.499 23.2331 50.8052 24.1584C50.3344 24.7863 50.337 25.5202 50.3402 25.8394C50.3597 27.8224 50.221 31.8141 50.0301 37.1479C49.8133 38.3177 49.3579 40.2738 48.3249 42.4965C47.1271 45.0744 45.4116 47.4918 37.7064 54.6455C36.2556 55.9924 34.2934 57.7851 31.9219 59.8662C31.99 58.4826 32.0579 57.0988 32.1258 55.7152C33.5552 54.5547 35.0041 53.3331 36.4664 52.0476C39.2493 49.601 41.8025 47.1671 44.1396 44.7888C45.2225 43.356 46.6618 41.0405 47.3949 37.912C47.7324 36.4718 47.8009 35.3593 47.8599 34.2444C48.0009 31.5844 48.1498 27.7779 48.17 22.9359V21.8661C49.0039 21.4016 50.095 20.8896 51.4253 20.4908C52.5942 20.1404 53.653 19.9655 54.5256 19.8795Z" fill="#0A0B0B"/>
</g>
</g>
<defs>
<linearGradient id="paint0_linear_2083_4747" x1="6.42052" y1="52.8045" x2="48.5253" y2="28.685" gradientUnits="userSpaceOnUse">
<stop stop-color="#666666"/>
<stop offset="0.0262256" stop-color="#666666"/>
<stop offset="0.244028" stop-color="#0B0B0B"/>
<stop offset="0.244886" stop-color="#0B0B0B"/>
<stop offset="0.527281" stop-color="#595959"/>
<stop offset="0.527297" stop-color="#595959"/>
<stop offset="0.650588" stop-color="#656565"/>
<stop offset="0.650592" stop-color="#656565"/>
<stop offset="0.850883" stop-color="#E6E6E6"/>
<stop offset="0.851335" stop-color="#E6E6E6"/>
<stop offset="1" stop-color="#E6E6E6"/>
</linearGradient>
<linearGradient id="paint1_linear_2083_4747" x1="5.56649" y1="41.005" x2="32.0711" y2="41.005" gradientUnits="userSpaceOnUse">
<stop stop-color="#444444"/>
<stop offset="0.182781"/>
<stop offset="0.278929"/>
<stop offset="0.34418"/>
<stop offset="0.64878" stop-color="#595959"/>
<stop offset="0.705388" stop-color="#595959"/>
<stop offset="0.863558"/>
<stop offset="1" stop-color="#1D1D1D"/>
</linearGradient>
<linearGradient id="paint2_linear_2083_4747" x1="6.7539" y1="41.046" x2="32.0556" y2="41.046" gradientUnits="userSpaceOnUse">
<stop stop-color="#6D6D6D"/>
<stop offset="0.138074" stop-color="#6D6D6D"/>
<stop offset="0.479275" stop-color="#434343"/>
<stop offset="0.553361" stop-color="#434343"/>
<stop offset="0.810603" stop-color="#121212"/>
<stop offset="0.824159" stop-color="#121212"/>
<stop offset="1"/>
</linearGradient>
<linearGradient id="paint3_linear_2083_4747" x1="5.72289" y1="37.0026" x2="35.3043" y2="42.1779" gradientUnits="userSpaceOnUse">
<stop stop-color="#121212"/>
<stop offset="0.0157225" stop-color="#121212"/>
<stop offset="0.185767" stop-color="#999999"/>
<stop offset="0.18608" stop-color="#999999"/>
<stop offset="0.294781" stop-color="#6B6B6B"/>
<stop offset="0.727116" stop-color="#6B6B6B"/>
<stop offset="0.845853" stop-color="#4F4F4F"/>
<stop offset="0.995332" stop-color="#121212"/>
<stop offset="1" stop-color="#121212"/>
</linearGradient>
<linearGradient id="paint4_linear_2083_4747" x1="8.46874" y1="39.9065" x2="32.2248" y2="39.9065" gradientUnits="userSpaceOnUse">
<stop stop-color="#3D3D3D"/>
<stop offset="0.149643" stop-color="#474747"/>
<stop offset="0.212979" stop-color="#474747"/>
<stop offset="0.585952" stop-color="#6D6D6D"/>
<stop offset="0.590122" stop-color="#6D6D6D"/>
<stop offset="0.792494" stop-color="#6D6D6D"/>
<stop offset="0.843376" stop-color="#474747"/>
<stop offset="0.933248" stop-color="#121212"/>
<stop offset="0.998858" stop-color="#121212"/>
<stop offset="0.999473" stop-color="#121212"/>
<stop offset="1" stop-color="#121212"/>
</linearGradient>
<linearGradient id="paint5_linear_2083_4747" x1="32.0546" y1="39.8572" x2="62.6442" y2="39.8572" gradientUnits="userSpaceOnUse">
<stop stop-color="#999999"/>
<stop offset="0.0857393" stop-color="#999999"/>
<stop offset="0.325308" stop-color="#4D4D4D"/>
<stop offset="0.38767" stop-color="#4D4D4D"/>
<stop offset="0.678782" stop-color="#1A1A1A"/>
<stop offset="1" stop-color="#1D1D1D"/>
</linearGradient>
<linearGradient id="paint6_linear_2083_4747" x1="32.0742" y1="41.005" x2="58.5628" y2="41.005" gradientUnits="userSpaceOnUse">
<stop stop-color="#3D3D3D"/>
<stop offset="0.0680018"/>
<stop offset="0.221934"/>
<stop offset="0.222223"/>
<stop offset="0.539724" stop-color="#252525"/>
<stop offset="0.539792" stop-color="#252525"/>
<stop offset="0.850604"/>
<stop offset="0.942418"/>
<stop offset="1" stop-color="#575757"/>
</linearGradient>
<linearGradient id="paint7_linear_2083_4747" x1="56.6835" y1="39.8128" x2="31.9687" y2="39.8128" gradientUnits="userSpaceOnUse">
<stop stop-color="#6F6F6F"/>
<stop offset="0.00987684" stop-color="#6F6F6F"/>
<stop offset="0.0919036" stop-color="#3D3D3D"/>
<stop offset="0.407777" stop-color="#6E6E6E"/>
<stop offset="0.578049" stop-color="#6E6E6E"/>
<stop offset="0.700142" stop-color="#6E6E6E"/>
<stop offset="0.909625" stop-color="#3D3D3D"/>
<stop offset="0.978163" stop-color="#6F6F6F"/>
<stop offset="1" stop-color="#6F6F6F"/>
</linearGradient>
<clipPath id="clip0_2083_4747">
<rect width="63" height="80" fill="white" transform="translate(0.117188)"/>
</clipPath>
</defs>
</svg>
