<svg xmlns="http://www.w3.org/2000/svg" viewBox="0 0 50 50">
	<path d="M0.5,49.5c0.6-2.2,1.2-4.4,1.8-6.6c0.5-1.7,1-3.4,1.4-5.1c0.1-0.3,0-0.6-0.1-0.9c-2-3.7-3.1-7.6-3.1-11.8C0.5,20,2,15.2,5,10.9c3.1-4.3,7.1-7.4,12.1-9.1C21,0.5,25,0.1,29.1,0.9c8.7,1.6,14.8,6.5,18.4,14.5c1.9,4.3,2.4,8.8,1.6,13.5c-1.3,7.8-5.5,13.7-12.4,17.5c-7.4,4-15.1,4.1-22.7,0.4c-0.7-0.3-1.3-0.5-2.1-0.2c-3.7,1-7.4,1.9-11,2.9C0.8,49.4,0.7,49.5,0.5,49.5L0.5,49.5z M6.4,43.7c0.3-0.1,0.5-0.1,0.7-0.2c2-0.5,3.9-1,5.9-1.5c0.4-0.1,0.8-0.1,1.2,0.2c4.5,2.7,9.3,3.7,14.4,2.7c5.4-1,9.7-3.7,12.9-8.2c3.5-4.9,4.6-10.3,3.3-16.2c-1.4-6.3-5.1-11-10.9-13.8c-5.4-2.7-11-2.8-16.5-0.5C11.4,8.6,7.4,13,5.6,19.1c-1.8,6-0.9,11.8,2.5,17.1c0.2,0.4,0.3,0.7,0.2,1.1C7.7,39.4,7.1,41.5,6.4,43.7L6.4,43.7z"/>
	<path d="M17.2,13.5c1.1-0.2,1.7,0.4,2.1,1.4c0.5,1.4,1.1,2.7,1.7,4c0.3,0.7,0.3,1.2-0.3,1.7c-0.5,0.5-0.9,1.1-1.4,1.6c-0.4,0.4-0.4,0.8-0.2,1.3c2,3.5,4.9,5.8,8.6,7.2c0.4,0.2,0.7,0,1-0.3c0.6-0.8,1.2-1.5,1.8-2.3c0.4-0.5,0.8-0.6,1.4-0.3c1.6,0.8,3.2,1.5,4.8,2.2c0.7,0.3,0.8,0.7,0.7,1.4c-0.7,4.4-4.7,5.8-8.3,4.8c-5.3-1.6-9.6-4.7-13-9.1c-1.5-1.9-2.7-3.9-3.3-6.2c-0.6-2.8,0.1-5.1,2.2-7C15.7,13.5,16.4,13.5,17.2,13.5L17.2,13.5z"/>
</svg>
