<?xml version="1.0" standalone="no"?>
<!DOCTYPE svg PUBLIC "-//W3C//DTD SVG 20010904//EN"
 "http://www.w3.org/TR/2001/REC-SVG-20010904/DTD/svg10.dtd">
<svg version="1.0" xmlns="http://www.w3.org/2000/svg"
 width="410.000000pt" height="410.000000pt" viewBox="0 0 410.000000 410.000000"
 preserveAspectRatio="xMidYMid meet">
<metadata>
Created by potrace 1.14, written by Peter Selinger 2001-2017
</metadata>
<g transform="translate(0.000000,410.000000) scale(0.100000,-0.100000)"
fill="#000000" stroke="none">
<path d="M2330 3715 c0 -8 -5 -15 -11 -15 -6 0 -8 -9 -4 -22 5 -18 4 -20 -4
-8 -9 13 -15 10 -36 -15 -36 -42 -61 -106 -35 -90 6 4 7 -1 3 -11 -5 -12 -3
-15 6 -9 10 6 11 2 6 -15 -5 -14 -3 -20 3 -16 6 4 8 -3 5 -16 -4 -19 -3 -20 7
-8 9 12 10 11 5 -9 -5 -15 -3 -21 3 -17 6 4 8 -2 4 -16 -3 -13 -1 -19 5 -15 7
5 9 -1 6 -15 -4 -19 -3 -20 7 -8 9 12 10 11 5 -9 -5 -15 -3 -21 3 -17 6 4 8
-2 4 -16 -3 -12 -1 -19 4 -15 5 3 10 -2 10 -11 0 -9 3 -28 7 -42 12 -44 -10 5
-66 149 l-52 134 -190 -2 c-104 -1 -193 -5 -196 -9 -4 -4 -38 -92 -77 -197
-39 -104 -127 -340 -196 -522 -70 -183 -182 -480 -250 -660 -169 -447 -284
-741 -297 -761 -15 -24 -18 -32 151 418 82 217 179 476 216 575 37 99 96 257
131 350 35 94 118 318 185 498 l121 328 209 -3 c114 -2 208 0 208 5 0 4 -97 6
-216 5 l-216 -3 -53 -140 c-75 -199 -221 -582 -380 -1000 -460 -1208 -411
-1098 -512 -1160 l-48 -30 128 -3 127 -3 26 -42 c14 -23 39 -61 55 -84 16 -23
29 -45 29 -50 0 -4 -36 -18 -81 -30 -94 -27 -259 -101 -259 -117 0 -14 42
-240 46 -245 2 -1 31 6 66 18 59 19 278 60 411 76 l59 8 56 -55 c32 -30 86
-79 122 -110 78 -66 399 -288 417 -288 24 0 217 116 333 200 63 45 156 118
206 161 l91 79 175 -30 c150 -24 256 -52 331 -84 15 -7 17 -2 18 35 l1 44 12
-55 c6 -30 15 -62 20 -70 4 -8 0 -6 -9 5 -17 20 -17 20 -10 -4 9 -30 -7 -41
-63 -41 -41 0 -42 -1 -40 -30 2 -22 13 -39 38 -58 19 -14 49 -39 65 -54 l30
-28 22 118 c40 210 45 229 57 229 10 0 10 -16 1 -73 -10 -65 -10 -72 4 -64 36
21 69 57 75 82 6 24 2 30 -34 48 -22 11 -61 34 -87 50 l-47 30 -12 -27 c-11
-26 -12 -26 -6 12 16 103 15 106 -73 150 -44 22 -112 51 -152 63 l-71 24 71
104 71 104 103 0 c57 0 103 1 103 3 0 1 -20 53 -44 115 l-44 113 24 54 c75
171 148 435 193 697 48 282 56 385 56 748 l0 335 -90 21 c-122 27 -251 68
-364 115 -51 22 -104 41 -116 43 -28 5 -123 46 -327 142 -163 77 -188 84 -188
59z m9 -105 c0 -10 -3 -8 -9 5 -12 27 -12 43 0 25 5 -8 9 -22 9 -30z m21 -55
c0 -5 -5 -3 -10 5 -5 8 -10 20 -10 25 0 6 5 3 10 -5 5 -8 10 -19 10 -25z
m-230 6 c24 -7 23 -9 -15 -18 -22 -6 -52 -14 -67 -17 -16 -4 -28 -11 -28 -16
0 -6 -8 -10 -17 -10 -15 0 -16 2 -3 10 8 5 10 10 4 10 -6 0 -21 -11 -34 -25
-12 -13 -27 -22 -33 -18 -6 3 -7 1 -4 -5 10 -15 -3 -43 -16 -35 -6 3 -7 1 -3
-6 4 -6 4 -17 -1 -24 -21 -28 -35 -97 -31 -160 2 -41 -1 -63 -6 -57 -6 6 -10
56 -10 112 -1 91 2 109 26 160 l26 57 -23 -11 c-17 -7 -31 -32 -49 -80 -14
-38 -26 -76 -26 -84 0 -8 -7 -25 -15 -38 -14 -21 -14 -29 4 -82 10 -32 21 -68
25 -79 3 -11 -5 4 -19 33 -25 53 -42 70 -29 30 6 -21 5 -22 -11 -8 -17 14 -17
12 -13 -22 2 -20 0 -34 -4 -32 -4 3 -8 0 -8 -6 0 -6 -3 -9 -7 -7 -5 3 -9 -9
-10 -26 -1 -22 1 -26 6 -14 5 14 11 9 29 -28 25 -52 26 -55 12 -55 -6 0 -9 3
-8 8 2 4 -5 18 -15 32 l-18 25 6 -32 c3 -17 1 -35 -5 -38 -6 -3 -7 1 -4 10 4
9 2 15 -4 13 -6 -2 -17 6 -25 17 -14 18 -15 18 -12 -8 2 -15 -1 -27 -6 -27 -5
0 -8 -3 -7 -7 1 -5 -3 -17 -9 -28 -6 -11 -13 -31 -14 -45 -2 -14 -7 -28 -12
-31 -4 -3 -9 -15 -11 -26 -3 -11 -9 -37 -14 -57 -8 -26 -7 -36 1 -37 8 0 8 -2
0 -6 -17 -6 -16 -27 1 -61 25 -50 27 -77 1 -30 -26 49 -55 57 -55 16 0 -11 -5
-29 -11 -40 -8 -16 -8 -19 1 -13 10 6 10 3 2 -11 -6 -11 -7 -27 -1 -41 5 -13
4 -25 -1 -28 -6 -4 -10 -11 -10 -16 0 -6 5 -7 12 -3 7 4 8 3 4 -4 -4 -6 0 -27
8 -46 18 -44 5 -56 -21 -18 -10 15 -25 27 -33 27 -32 0 -43 -36 -52 -174 -11
-173 -19 -204 -11 -46 3 66 2 117 -2 113 -4 -3 -6 -9 -6 -12 1 -4 -5 -19 -14
-36 -8 -16 -15 -41 -15 -55 0 -14 -4 -24 -9 -20 -13 7 -25 -77 -16 -105 5 -15
3 -20 -3 -16 -19 12 6 -56 39 -104 l31 -45 -32 35 c-18 19 -41 53 -51 75 -16
35 -19 37 -19 15 0 -20 -2 -22 -10 -10 -8 12 -10 11 -10 -6 0 -12 -9 -32 -20
-45 -20 -24 -20 -23 1 36 11 33 24 69 29 80 22 54 32 86 29 90 -3 2 -35 -75
-72 -172 -37 -97 -65 -178 -62 -181 3 -3 10 8 16 25 8 24 15 30 30 26 16 -5
18 -8 7 -14 -9 -6 -6 -9 12 -9 25 -1 24 -1 -5 -15 l-30 -15 35 5 35 5 -42 -20
c-24 -10 -43 -24 -43 -31 0 -6 -8 -9 -20 -6 -15 4 -22 -4 -36 -39 -9 -25 -19
-43 -20 -41 -2 2 59 172 137 378 78 206 224 592 324 859 101 267 188 497 194
513 l11 27 127 -1 c71 -1 139 -4 153 -8z m260 -86 c0 -5 -5 -3 -10 5 -5 8 -10
20 -10 25 0 6 5 3 10 -5 5 -8 10 -19 10 -25z m-251 -66 c-18 -35 -45 -100 -61
-144 -25 -71 -28 -75 -23 -35 4 41 103 256 112 246 3 -2 -10 -33 -28 -67z
m221 -174 c0 -5 -5 -3 -10 5 -5 8 -10 20 -10 25 0 6 5 3 10 -5 5 -8 10 -19 10
-25z m44 -115 c3 -14 -2 -7 -13 15 -10 22 -21 51 -25 65 -3 14 2 7 13 -15 10
-22 21 -51 25 -65z m-310 56 c-3 -15 -8 -25 -11 -23 -2 3 -1 17 3 31 3 15 8
25 11 23 2 -3 1 -17 -3 -31z m87 -3 c-12 -20 -14 -14 -5 12 4 9 9 14 11 11 3
-2 0 -13 -6 -23z m-98 -263 c154 -415 237 -640 242 -662 l6 -23 -317 3 c-295
2 -317 4 -301 19 23 23 96 31 276 32 l153 1 -4 25 c-5 22 -2 25 23 25 21 0 29
5 30 18 0 12 3 10 10 -7 5 -14 8 -30 5 -37 -5 -14 41 -37 49 -25 9 15 -33 172
-79 303 -73 203 -165 441 -175 451 -12 12 -10 16 -176 -429 -75 -203 -144
-376 -152 -384 -20 -19 -35 -62 158 462 90 245 167 443 170 440 3 -4 40 -99
82 -212z m88 173 c-11 -21 -22 -46 -25 -55 -9 -29 -23 -21 -23 12 0 17 3 26 7
20 5 -7 16 2 29 24 30 47 37 46 12 -1z m263 -43 c5 -17 4 -20 -2 -10 -5 8 -13
26 -16 40 -5 17 -4 20 2 10 5 -8 13 -26 16 -40z m26 -65 c0 -5 -5 -3 -10 5 -5
8 -10 20 -10 25 0 6 5 3 10 -5 5 -8 10 -19 10 -25z m373 5 c-24 -11 -44 -25
-44 -32 -1 -7 -5 -60 -9 -118 l-7 -105 0 122 0 122 41 15 c58 20 69 18 19 -4z
m-349 -70 c5 -17 4 -20 -2 -10 -5 8 -13 26 -16 40 -5 17 -4 20 2 10 5 -8 13
-26 16 -40z m-268 18 c-19 -27 -21 -42 -3 -32 9 6 9 5 0 -8 -7 -8 -10 -17 -7
-20 3 -3 0 -9 -6 -13 -6 -4 -9 -1 -8 7 2 7 -5 12 -14 12 -24 -2 -23 -1 13 41
35 39 48 46 25 13z m38 -93 c-14 -31 -23 -62 -20 -70 3 -9 0 -12 -10 -8 -18 7
-18 6 6 53 11 22 20 46 20 54 0 8 6 17 13 19 6 3 13 6 14 6 1 1 -10 -24 -23
-54z m256 10 c0 -5 -5 -3 -10 5 -5 8 -10 20 -10 25 0 6 5 3 10 -5 5 -8 10 -19
10 -25z m-584 -216 c-93 -258 -104 -289 -106 -274 -1 13 182 516 186 512 2 -2
-34 -109 -80 -238z m994 237 c0 -2 -8 -10 -17 -17 -16 -13 -17 -12 -4 4 13 16
21 21 21 13z m-390 -71 c0 -5 -5 -3 -10 5 -5 8 -10 20 -10 25 0 6 5 3 10 -5 5
-8 10 -19 10 -25z m-101 -352 c-12 -21 -27 -42 -32 -48 -11 -11 9 29 31 63 24
37 25 25 1 -15z m-41 -89 c-3 -14 -5 -12 -10 9 -3 19 -2 25 4 19 6 -6 8 -18 6
-28z m-25 -19 c-3 -9 -8 -14 -10 -11 -3 3 -2 9 2 15 9 16 15 13 8 -4z m-133
-184 c0 -13 -49 -43 -60 -36 -5 3 -7 0 -5 -7 3 -8 -7 -23 -22 -34 -47 -34 -60
-39 -39 -16 11 12 15 22 11 22 -5 0 4 14 20 30 16 17 25 30 19 31 -15 1 26 15
52 17 13 1 24 -2 24 -7z m-338 -8 c-51 -2 -132 -2 -180 0 -48 1 -6 3 93 3 99
0 138 -2 87 -3z m174 -2 c-5 -8 -56 -3 -56 5 0 2 14 4 31 4 16 0 28 -4 25 -9z
m-774 -133 c-8 -8 -9 -4 -5 13 4 13 8 18 11 10 2 -7 -1 -18 -6 -23z m1332 0
c-16 -18 -32 -37 -36 -42 -5 -6 -8 -7 -8 -3 0 8 60 77 68 77 3 0 -7 -15 -24
-32z m36 -11 c0 -2 -10 -12 -22 -23 l-23 -19 19 23 c18 21 26 27 26 19z m-97
-71 c-10 -13 -20 -22 -22 -20 -4 4 29 44 36 44 2 0 -4 -11 -14 -24z m-129 -26
c-6 -6 -170 -11 -429 -12 l-419 -3 -38 -105 c-20 -58 -37 -117 -37 -132 -1
-16 -5 -28 -11 -28 -14 0 -3 50 38 178 l37 112 434 0 c287 0 432 -3 425 -10z
m-1084 -40 c0 -5 -2 -10 -4 -10 -3 0 -8 5 -11 10 -3 6 -1 10 4 10 6 0 11 -4
11 -10z m314 -40 c-22 -9 -29 -6 -20 9 4 6 14 7 23 4 15 -6 14 -7 -3 -13z
m-427 4 c-3 -3 -12 -4 -19 -1 -8 3 -5 6 6 6 11 1 17 -2 13 -5z m-17 -72 c-5
-2 -8 -8 -4 -13 3 -5 -8 -9 -24 -9 -24 0 -32 -6 -45 -37 -9 -21 -14 -27 -10
-13 8 35 44 111 37 80 -5 -25 -5 -25 13 3 17 25 19 26 31 10 8 -12 9 -19 2
-21z m1444 -19 c-32 -47 -40 -55 -24 -23 12 24 40 60 46 60 2 0 -8 -17 -22
-37z m-339 -33 c-8 -13 -286 -254 -305 -265 -10 -5 -12 -5 -5 3 16 16 310 272
313 272 2 0 0 -4 -3 -10z m766 -37 c-12 -20 -14 -14 -5 12 4 9 9 14 11 11 3
-2 0 -13 -6 -23z m-1936 -36 c12 -3 9 -4 -7 -3 -21 2 -28 -3 -33 -22 -3 -13
-8 -22 -11 -20 -2 3 1 19 7 37 7 18 14 28 18 23 3 -6 15 -12 26 -15z m1339 7
c21 -8 21 -66 0 -110 -28 -59 -103 -133 -183 -179 -42 -24 -77 -40 -79 -35 -2
5 4 23 13 40 9 18 14 34 11 38 -3 3 -7 -1 -7 -9 -2 -25 -17 45 -18 86 0 35 6
47 50 93 28 28 57 52 64 52 18 0 38 -36 30 -53 -4 -6 2 -2 13 10 11 12 23 19
27 15 3 -4 4 7 1 23 l-6 30 11 -27 c14 -36 24 -35 41 2 7 17 14 30 15 30 1 0
8 -3 17 -6z m98 -74 c-22 -54 -52 -99 -74 -111 -20 -11 -20 -11 -2 20 10 17
22 31 27 31 4 0 5 6 1 13 -4 6 -3 8 1 4 10 -9 43 66 45 103 l2 25 7 -25 c4
-15 2 -39 -7 -60z m-1085 8 c-3 -8 -6 -5 -6 6 -1 11 2 17 5 13 3 -3 4 -12 1
-19z m-497 -192 c0 -2 -9 -6 -20 -9 -11 -3 -18 -1 -14 4 5 9 34 13 34 5z
m1830 -156 c-11 -16 -26 -33 -32 -36 -7 -4 1 9 16 29 34 44 46 50 16 7z m-632
-57 c76 -5 81 -7 68 -22 -9 -9 -23 -46 -31 -81 -9 -36 -22 -77 -28 -92 -13
-30 -32 -37 -40 -14 -3 7 -26 17 -52 21 -41 6 -49 4 -62 -14 -8 -12 -21 -21
-29 -21 -8 0 -14 -7 -14 -15 0 -8 8 -15 19 -15 10 0 24 7 31 15 7 8 28 15 48
15 47 0 81 -35 74 -79 l-4 -31 -159 0 -159 0 0 39 c0 33 4 40 21 43 15 2 27
17 39 48 l18 45 4 -45 c2 -38 7 -46 26 -48 22 -3 22 -2 20 90 l-2 93 -3 -77
c-3 -59 -7 -78 -18 -78 -10 0 -15 17 -17 67 l-3 67 -25 -64 c-19 -50 -30 -66
-47 -68 -18 -3 -28 8 -52 55 l-30 58 -1 -57 c0 -45 -3 -58 -15 -58 -8 0 -15 8
-15 19 0 10 -3 46 -6 80 l-7 61 31 0 c26 0 35 -7 52 -37 l21 -38 -6 73 -6 72
138 0 c76 0 175 -3 221 -7z m592 4 c0 -2 -10 -12 -22 -23 l-23 -19 19 23 c18
21 26 27 26 19z m-1102 -93 c46 -32 13 -94 -50 -94 -25 0 -27 -2 -21 -30 4
-23 2 -30 -10 -30 -10 0 -17 15 -21 48 -4 26 -9 61 -12 79 -6 31 -5 32 33 36
21 2 43 4 48 5 6 1 21 -5 33 -14z m733 0 c4 -2 1 -33 -6 -69 -10 -54 -10 -65
2 -65 15 0 15 -5 7 -37 -8 -28 -24 -30 -24 -4 0 15 -10 19 -52 25 -81 9 -98 8
-98 -9 0 -8 -4 -15 -10 -15 -18 0 -11 55 9 67 14 9 22 29 27 69 l7 56 66 -7
c36 -4 69 -9 72 -11z m-917 -84 c25 -38 46 -72 46 -75 0 -12 -30 -4 -38 11 -7
12 -19 14 -60 8 -42 -5 -52 -10 -52 -26 0 -10 -4 -16 -10 -13 -5 3 -10 1 -10
-6 0 -7 -2 -10 -5 -7 -3 3 2 40 12 83 16 73 28 91 64 94 3 1 27 -30 53 -69z
m1113 -11 c7 -35 12 -72 13 -81 0 -24 -17 -23 -24 0 -9 26 -96 47 -112 26 -10
-13 -34 -20 -34 -9 0 2 20 36 45 74 42 65 47 69 72 62 25 -7 29 -14 40 -72z
m-197 -174 c0 -2 -20 -18 -45 -35 -25 -17 -45 -29 -45 -26 0 4 80 64 88 66 1
0 2 -2 2 -5z m-135 -95 c-3 -5 -16 -15 -28 -21 -19 -9 -19 -8 3 10 28 23 34
26 25 11z m-85 -55 c0 -2 -10 -9 -22 -15 -22 -11 -22 -10 -4 4 21 17 26 19 26
11z m-50 -30 c0 -2 -13 -11 -30 -20 -38 -19 -40 -11 -2 9 31 17 32 18 32 11z
m-70 -40 c0 -2 -18 -14 -40 -25 -22 -11 -40 -18 -40 -15 0 2 17 13 38 24 42
23 42 23 42 16z"/>
<path d="M1462 2511 c-6 -17 -9 -31 -6 -31 7 0 25 52 20 57 -2 2 -8 -10 -14
-26z"/>
<path d="M1427 2418 c-9 -23 -15 -43 -13 -45 2 -2 11 15 20 38 9 23 15 43 13
45 -2 2 -11 -15 -20 -38z"/>
<path d="M1398 2345 c-3 -11 -9 -29 -13 -40 -3 -11 1 -7 10 8 9 16 15 33 12
40 -2 6 -6 3 -9 -8z"/>
<path d="M2129 2093 c-13 -16 -12 -17 4 -4 9 7 17 15 17 17 0 8 -8 3 -21 -13z"/>
<path d="M2105 1040 c-19 -36 -15 -48 8 -26 13 14 16 14 21 1 3 -8 10 -15 15
-15 7 0 6 10 -1 28 -19 44 -25 46 -43 12z"/>
<path d="M1627 1053 c-10 -10 -8 -53 2 -53 23 0 61 21 61 34 0 21 -47 35 -63
19z"/>
<path d="M2317 1023 c-3 -21 -8 -46 -12 -55 -6 -15 -2 -18 23 -18 17 0 37 -2
45 -6 11 -4 16 7 20 47 4 29 5 54 4 55 -1 1 -18 4 -38 8 -36 6 -36 6 -42 -31z"/>
<path d="M1437 1007 c-4 -14 -10 -32 -13 -41 -5 -12 0 -16 17 -15 13 0 32 3
41 7 15 6 13 11 -11 41 l-28 34 -6 -26z"/>
<path d="M2552 990 c-12 -16 -22 -31 -22 -34 0 -2 16 -6 35 -8 35 -4 36 -4 29
26 -9 46 -18 49 -42 16z"/>
<path d="M1225 3524 c-147 -62 -443 -164 -477 -164 -15 0 -30 -4 -33 -10 -3
-5 -1 -10 4 -10 6 0 11 -5 11 -11 0 -5 -4 -8 -8 -5 -5 3 -9 -1 -9 -9 0 -8 4
-12 8 -10 3 3 9 -5 12 -16 3 -12 10 -18 16 -15 6 4 3 -6 -6 -21 -15 -27 -15
-31 5 -75 14 -32 16 -45 7 -42 -7 3 -16 0 -20 -6 -3 -6 -3 -9 2 -8 4 2 8 -1 8
-7 0 -5 -4 -9 -8 -7 -5 1 -6 -2 -2 -8 3 -6 10 -8 15 -5 15 9 18 -23 20 -210 2
-364 27 -628 86 -890 20 -88 38 -171 40 -185 1 -14 6 -36 10 -49 5 -16 4 -22
-4 -17 -6 3 -14 1 -18 -5 -4 -7 -3 -9 2 -6 5 3 17 -8 26 -24 10 -16 13 -29 9
-29 -5 0 -11 7 -15 15 -3 8 -10 15 -15 15 -7 0 -7 -9 -1 -24 5 -13 6 -27 2
-32 -4 -4 -2 -4 4 -1 7 4 15 0 18 -9 9 -24 7 -31 -4 -14 -5 8 -10 11 -10 5 0
-5 4 -16 9 -23 11 -18 36 12 27 33 -3 9 -2 14 3 11 10 -6 23 25 81 184 21 58
68 183 104 278 l66 173 2 212 2 212 6 -194 5 -193 144 383 c80 213 143 396
143 413 -2 60 -3 66 -10 62 -15 -9 -4 53 11 69 10 9 15 20 13 24 -3 4 15 20
39 35 28 18 49 41 58 65 8 20 12 37 8 39 -4 1 -34 -9 -66 -22 -47 -19 -63 -22
-74 -13 -12 10 -13 9 -6 -3 8 -13 7 -13 -8 -1 -9 7 -17 22 -17 32 0 11 -5 19
-12 19 -6 0 -8 3 -5 7 4 3 -2 17 -14 29 -14 15 -17 24 -9 29 7 4 4 13 -11 26
-12 10 -18 19 -14 19 9 0 -26 29 -35 30 -3 0 -54 -21 -115 -46z m-68 -494 c75
-24 153 -57 153 -65 0 -3 -5 -4 -12 -2 -6 1 -15 -9 -19 -23 l-7 -25 -1 28 c-1
23 -9 31 -58 53 -32 14 -80 32 -108 39 -27 8 -41 14 -29 14 11 1 48 -8 81 -19z
m31 -234 l-1 -61 -6 61 c-3 34 -13 70 -21 80 -14 19 -14 19 8 0 19 -16 22 -28
20 -80z"/>
<path d="M715 3260 c3 -5 8 -10 11 -10 2 0 4 5 4 10 0 6 -5 10 -11 10 -5 0 -7
-4 -4 -10z"/>
<path d="M797 923 c-4 -3 -7 -25 -7 -48 0 -40 -3 -44 -45 -66 -25 -13 -45 -27
-45 -31 0 -5 -9 -8 -19 -8 -10 0 -28 -8 -40 -17 -21 -18 -21 -18 -2 -49 21
-34 81 -82 81 -65 0 6 9 2 20 -9 18 -18 19 -26 11 -58 -8 -28 -7 -47 4 -77 8
-22 14 -48 15 -57 0 -10 4 -18 8 -18 4 0 40 27 80 61 59 50 72 66 72 90 0 28
-2 29 -45 29 -44 0 -45 1 -45 31 0 17 5 39 10 50 11 19 5 70 -22 197 -11 50
-17 59 -31 45z"/>
<path d="M1068 623 c-16 -2 -28 -9 -28 -14 0 -9 35 -4 75 12 l20 8 -20 -1
c-11 -1 -32 -3 -47 -5z"/>
<path d="M2900 610 c34 -11 60 -11 35 0 -11 5 -29 8 -40 8 -16 0 -15 -2 5 -8z"/>
<path d="M940 585 c0 -17 2 -18 24 -9 23 9 20 24 -4 24 -11 0 -20 -7 -20 -15z"/>
<path d="M741 436 c-1 -44 2 -57 10 -49 8 8 9 25 1 60 l-10 48 -1 -59z"/>
<path d="M3247 423 c-2 -21 0 -42 4 -47 5 -6 9 10 9 37 0 57 -6 61 -13 10z"/>
</g>
</svg>
