<svg width="305" height="270" viewBox="0 0 305 270" fill="none" xmlns="http://www.w3.org/2000/svg">
<path fill-rule="evenodd" clip-rule="evenodd" d="M52.7281 133.178C55.1673 134.381 57.5259 135.114 60.2549 135.273C61.4589 135.345 62.6623 135.171 63.8501 134.997C64.6284 134.882 65.389 134.698 66.1264 134.422C70.007 132.97 73.631 130.371 75.4307 126.519C76.4889 124.253 77.0521 122.133 77.2354 119.622C77.3408 118.182 77.2307 116.685 76.9629 115.243C87.5339 143.072 103.758 162.335 123.062 171.879C124.553 181.481 129.514 189.694 136.4 194.702C132.606 237.905 110.922 250.934 103.237 254.224C101.673 254.894 100.529 256.389 100.517 258.092L100.471 264.179C100.455 266.24 102.114 267.924 104.175 267.94L198.225 268.646C200.286 268.662 201.97 267.003 201.985 264.941L202.031 258.854C202.044 257.152 200.923 255.64 199.368 254.947C191.747 251.546 170.318 238.23 167.12 195.141C174.233 190.261 179.438 182.029 181.096 172.315C200.542 163.062 217.053 144.045 228.041 116.378C227.751 117.815 227.619 119.311 227.703 120.752C227.848 123.266 228.38 125.394 229.404 127.676C231.145 131.555 234.731 134.208 238.589 135.717C239.323 136.005 240.078 136.2 240.854 136.327C242.042 136.518 243.241 136.71 244.446 136.657C247.177 136.538 249.546 135.841 252.005 134.675C253.39 134.017 254.299 132.543 254.768 131.138C255.274 129.61 254.921 127.932 254.201 126.545C253.53 125.252 252.042 124.172 250.661 123.782C249.067 123.328 247.556 123.648 246.098 124.333C245.614 124.498 245.123 124.634 244.622 124.737C244.215 124.757 243.809 124.754 243.402 124.729C243.003 124.639 242.611 124.527 242.225 124.394C241.858 124.201 241.503 123.99 241.159 123.759C240.899 123.523 240.651 123.276 240.416 123.016C240.253 122.759 240.104 122.496 239.965 122.225C239.822 121.783 239.707 121.335 239.616 120.88C239.583 120.283 239.59 119.686 239.635 119.088C239.771 118.433 239.953 117.791 240.185 117.163C240.97 115.533 241.946 114.003 243.03 112.555C243.898 111.494 244.815 110.475 245.768 109.491C250.305 104.803 255.519 100.801 260.698 96.8599C261.246 96.4446 261.794 96.0296 262.342 95.6156C262.839 95.2396 263.337 94.8638 263.834 94.4879C270.994 89.0804 278.182 83.6513 284.621 77.3873C291.669 70.5318 297.704 62.6391 301.208 53.3878C302.95 48.7898 303.864 43.827 304.019 38.9186C304.222 32.5577 302.726 26.2071 299.704 20.6063C293.653 9.39066 281.563 2.17619 268.853 2.00205C261.998 1.90659 255.249 4.5952 250.341 9.38687C245.429 14.1808 242.633 20.867 242.549 27.717C242.508 31.0553 245.244 33.5491 248.456 33.7167C249.94 33.7949 251.639 33.0303 252.679 32.0039C253.772 30.927 254.436 29.3379 254.454 27.8065C254.462 27.1777 254.497 26.5513 254.559 25.9265C254.786 24.7097 255.12 23.5206 255.561 22.3643C256.083 21.2778 256.699 20.2431 257.404 19.2635C258.183 18.3478 259.039 17.5039 259.965 16.7365C260.952 16.0475 261.993 15.448 263.083 14.9405C264.246 14.5153 265.442 14.1971 266.663 13.9875C268.354 13.8462 270.057 13.9088 271.742 14.1008C273.808 14.4561 275.828 15.0227 277.777 15.796C279.651 16.6664 281.427 17.7252 283.085 18.9578C284.641 20.2543 286.061 21.6999 287.331 23.2773C288.522 24.9392 289.54 26.7124 290.377 28.5784C291.122 30.5376 291.659 32.5652 291.984 34.6355C292.232 37.2028 292.154 39.794 291.844 42.3543C291.345 45.386 290.493 48.3435 289.334 51.1887C287.68 54.84 285.548 58.2476 283.117 61.4294C281.768 63.1095 280.343 64.7258 278.856 66.2849C273.011 72.4295 266.343 77.7241 259.615 82.8595C258.598 83.6312 257.58 84.4004 256.561 85.1696C253.493 87.4871 250.424 89.8051 247.408 92.1949C241.372 96.9804 235.27 102.186 231.183 108.819C230.878 109.315 230.582 109.826 230.299 110.348C237.851 88.9369 242.268 62.8179 242.496 32.4441L242.581 21.1729C242.599 18.7296 240.634 16.734 238.191 16.7157L68.3119 15.4395C65.8691 15.4211 63.8739 17.387 63.8555 19.8303L63.7708 31.1015C63.5426 61.4775 67.5672 87.6616 74.7973 109.185C74.5219 108.657 74.2318 108.14 73.9329 107.638C69.9485 100.945 63.925 95.6474 57.9603 90.7717C54.9699 88.3265 51.9228 85.9528 48.8759 83.5793C47.9962 82.894 47.1165 82.2088 46.2382 81.5218C39.4695 76.2018 32.7568 70.7301 26.9055 64.3921C25.4477 62.8148 24.0494 61.1816 22.7279 59.4859C20.3461 56.2705 18.2652 52.8341 16.6647 49.1615C15.5423 46.2884 14.7323 43.3069 14.2779 40.2558C14.0075 37.6954 13.9696 35.1077 14.2558 32.5487C14.6115 30.4851 15.1786 28.4674 15.9517 26.5211C16.8167 24.6619 17.8661 22.8989 19.0867 21.2505C20.382 19.6922 21.8258 18.2681 23.4027 16.9955C25.0745 15.7937 26.8599 14.7662 28.7396 13.9269C30.7012 13.1822 32.7305 12.6453 34.8035 12.3209C36.4924 12.1542 38.1955 12.1172 39.8842 12.2839C41.0996 12.5114 42.2878 12.8466 43.4425 13.288C44.5273 13.8122 45.5608 14.4278 46.5384 15.1324C47.4523 15.9127 48.2943 16.7682 49.0599 17.6942C49.7499 18.6842 50.3501 19.7279 50.8574 20.8221C51.2808 21.9838 51.5974 23.1766 51.806 24.3955C51.8591 25.0238 51.8845 25.6533 51.8829 26.2847C51.8791 27.8163 52.5184 29.4152 53.5951 30.5083C54.6201 31.5502 56.3084 32.3403 57.7918 32.2843C61.0052 32.165 63.7814 29.7126 63.7901 26.3741C63.8076 19.5236 61.1123 12.7962 56.2734 7.92897C51.439 3.06412 44.7296 0.274399 37.8743 0.266859C25.1618 0.250022 12.9659 7.28204 6.74683 18.4055C3.64151 23.9603 2.049 30.2877 2.15618 36.6509C2.23865 41.5611 3.07773 46.5371 4.75013 51.1607C8.11533 60.4636 14.0308 68.446 20.9738 75.4067C27.3112 81.7596 34.4099 87.2909 41.4793 92.7993L41.4937 92.8105C41.9887 93.1962 42.4836 93.5819 42.9781 93.9676C43.5977 94.4506 44.2172 94.9347 44.836 95.4191C49.8789 99.379 54.9432 103.407 59.3416 108.09C60.2737 109.082 61.1705 110.108 62.0166 111.174C63.0877 112.647 64.0477 114.201 64.8119 115.855C65.0316 116.48 65.2033 117.118 65.329 117.768C65.3662 118.373 65.3638 118.976 65.3202 119.579C65.2232 120.03 65.1014 120.473 64.9527 120.91C64.8095 121.179 64.655 121.442 64.4883 121.697C64.2495 121.952 63.9989 122.194 63.737 122.425C63.3888 122.651 63.03 122.858 62.6598 123.045C62.2718 123.172 61.8784 123.278 61.4785 123.363C61.0714 123.382 60.6649 123.378 60.258 123.352C59.7572 123.241 59.2665 123.097 58.7829 122.924C57.3375 122.218 55.8342 121.877 54.2321 122.306C52.8484 122.675 51.3436 123.733 50.6534 125.016C49.913 126.392 49.5347 128.064 50.0189 129.599C50.4642 131.012 51.3503 132.499 52.7281 133.178ZM292.098 35.4297C292.1 35.438 292.101 35.4464 292.102 35.4547L292.102 35.4559C292.101 35.4471 292.1 35.4384 292.098 35.4297ZM260.426 97.0664C260.192 97.2441 259.958 97.4218 259.725 97.5995C259.959 97.4218 260.192 97.2441 260.426 97.0664Z" fill="#81898F"/>
</svg>
